<?xml version="1.0" standalone="yes"?>

<svg version="1.1" viewBox="0.0 0.0 566.3674540682415 313.0787401574803" fill="none" stroke="none" stroke-linecap="square" stroke-miterlimit="10" xmlns="http://www.w3.org/2000/svg" xmlns:xlink="http://www.w3.org/1999/xlink"><clipPath id="p.0"><path d="m0 0l566.36743 0l0 313.07874l-566.36743 0l0 -313.07874z" clip-rule="nonzero"></path></clipPath><g clip-path="url(#p.0)"><path fill="#000000" fill-opacity="0.0" d="m0 0l566.36743 0l0 313.07874l-566.36743 0z" fill-rule="nonzero"></path><path fill="#393939" d="m306.21783 90.66265l0 0c0 -4.1261444 3.3449097 -7.4710464 7.4710693 -7.4710464l244.0185 0c1.9814453 0 3.881775 0.78712463 5.282837 2.1882172c1.401123 1.4010925 2.1882324 3.301384 2.1882324 5.2828293l0 94.44372c0 4.1261597 -3.3449097 7.471054 -7.4710693 7.471054l-244.0185 0c-4.1261597 0 -7.4710693 -3.3448944 -7.4710693 -7.471054z" fill-rule="nonzero"></path><path fill="#ffffff" d="m358.27277 108.69042q0 1.796875 -1.296875 2.796875q-1.296875 1.0 -3.53125 1.0q-2.40625 0 -3.703125 -0.625l0 -1.515625q0.828125 0.34375 1.8125 0.546875q0.984375 0.203125 1.953125 0.203125q1.578125 0 2.375 -0.59375q0.796875 -0.59375 0.796875 -1.65625q0 -0.71875 -0.28125 -1.15625q-0.28125 -0.453125 -0.953125 -0.828125q-0.65625 -0.390625 -2.015625 -0.875q-1.890625 -0.671875 -2.703125 -1.59375q-0.8125 -0.9375 -0.8125 -2.421875q0 -1.578125 1.171875 -2.5q1.1875 -0.9375 3.125 -0.9375q2.03125 0 3.71875 0.75l-0.484375 1.375q-1.6875 -0.703125 -3.265625 -0.703125q-1.25 0 -1.96875 0.546875q-0.703125 0.53125 -0.703125 1.484375q0 0.703125 0.265625 1.15625q0.265625 0.4375 0.875 0.828125q0.625 0.375 1.890625 0.828125q2.125 0.75 2.921875 1.625q0.8125 0.875 0.8125 2.265625zm8.614075 3.609375l-0.3125 -1.453125l-0.078125 0q-0.75 0.96875 -1.515625 1.3125q-0.75 0.328125 -1.890625 0.328125q-1.5 0 -2.359375 -0.78125q-0.859375 -0.78125 -0.859375 -2.21875q0 -3.078125 4.921875 -3.234375l1.734375 -0.046875l0 -0.625q0 -1.203125 -0.515625 -1.765625q-0.515625 -0.578125 -1.65625 -0.578125q-1.265625 0 -2.875 0.78125l-0.46875 -1.1875q0.75 -0.40625 1.640625 -0.625q0.90625 -0.234375 1.796875 -0.234375q1.828125 0 2.703125 0.8125q0.875 0.796875 0.875 2.578125l0 6.9375l-1.140625 0zm-3.484375 -1.078125q1.4375 0 2.25 -0.78125q0.828125 -0.796875 0.828125 -2.21875l0 -0.921875l-1.53125 0.0625q-1.84375 0.0625 -2.65625 0.578125q-0.8125 0.5 -0.8125 1.5625q0 0.84375 0.5 1.28125q0.515625 0.4375 1.421875 0.4375zm10.891327 0q0.40625 0 0.78125 -0.0625q0.390625 -0.0625 0.609375 -0.125l0 1.171875q-0.25 0.125 -0.75 0.203125q-0.484375 0.078125 -0.875 0.078125q-2.9375 0 -2.9375 -3.109375l0 -6.046875l-1.46875 0l0 -0.75l1.46875 -0.640625l0.640625 -2.171875l0.890625 0l0 2.359375l2.953125 0l0 1.203125l-2.953125 0l0 5.984375q0 0.921875 0.4375 1.421875q0.4375 0.484375 1.203125 0.484375zm12.070557 -4.015625q0 2.484375 -1.25 3.890625q-1.25 1.390625 -3.453125 1.390625q-1.375 0 -2.4375 -0.640625q-1.046875 -0.640625 -1.625 -1.828125q-0.578125 -1.203125 -0.578125 -2.8125q0 -2.484375 1.234375 -3.875q1.25 -1.390625 3.46875 -1.390625q2.125 0 3.375 1.421875q1.265625 1.421875 1.265625 3.84375zm-7.75 0q0 1.953125 0.78125 2.96875q0.78125 1.015625 2.296875 1.015625q1.515625 0 2.296875 -1.015625q0.78125 -1.015625 0.78125 -2.96875q0 -1.9375 -0.78125 -2.9375q-0.78125 -1.015625 -2.3125 -1.015625q-1.515625 0 -2.296875 1.0q-0.765625 0.984375 -0.765625 2.953125zm16.799683 2.3125q0 1.421875 -1.0625 2.203125q-1.046875 0.765625 -2.953125 0.765625q-2.03125 0 -3.15625 -0.640625l0 -1.4375q0.734375 0.375 1.5625 0.59375q0.84375 0.21875 1.625 0.21875q1.203125 0 1.84375 -0.390625q0.65625 -0.390625 0.65625 -1.171875q0 -0.59375 -0.515625 -1.015625q-0.515625 -0.421875 -2.0 -1.0q-1.421875 -0.53125 -2.03125 -0.921875q-0.59375 -0.390625 -0.890625 -0.890625q-0.28125 -0.515625 -0.28125 -1.203125q0 -1.25 1.0 -1.96875q1.015625 -0.71875 2.78125 -0.71875q1.640625 0 3.21875 0.671875l-0.546875 1.25q-1.53125 -0.625 -2.78125 -0.625q-1.09375 0 -1.65625 0.34375q-0.546875 0.34375 -0.546875 0.9375q0 0.421875 0.203125 0.703125q0.203125 0.28125 0.671875 0.546875q0.46875 0.265625 1.78125 0.75q1.8125 0.65625 2.4375 1.328125q0.640625 0.671875 0.640625 1.671875zm9.306244 2.78125l0 -6.578125q0 -1.25 -0.578125 -1.859375q-0.5625 -0.609375 -1.765625 -0.609375q-1.609375 0 -2.34375 0.875q-0.734375 0.875 -0.734375 2.859375l0 5.3125l-1.53125 0l0 -14.4375l1.53125 0l0 4.375q0 0.78125 -0.078125 1.296875l0.09375 0q0.453125 -0.71875 1.296875 -1.140625q0.84375 -0.421875 1.921875 -0.421875q1.859375 0 2.78125 0.890625q0.9375 0.875 0.9375 2.796875l0 6.640625l-1.53125 0zm6.0287476 0l-1.53125 0l0 -10.171875l1.53125 0l0 10.171875zm-1.671875 -12.921875q0 -0.53125 0.25 -0.765625q0.265625 -0.25 0.65625 -0.25q0.375 0 0.640625 0.25q0.28125 0.25 0.28125 0.765625q0 0.515625 -0.28125 0.78125q-0.265625 0.25 -0.640625 0.25q-0.390625 0 -0.65625 -0.25q-0.25 -0.265625 -0.25 -0.78125zm13.6874695 3.3125q0 2.0625 -1.40625 3.171875q-1.40625 1.109375 -4.03125 1.109375l-1.59375 0l0 5.328125l-1.578125 0l0 -13.5625l3.515625 0q5.09375 0 5.09375 3.953125zm-7.03125 2.921875l1.421875 0q2.09375 0 3.03125 -0.671875q0.9375 -0.6875 0.9375 -2.171875q0 -1.34375 -0.890625 -2.0q-0.875 -0.671875 -2.734375 -0.671875l-1.765625 0l0 5.515625zm15.68515 6.6875l-0.3125 -1.453125l-0.078125 0q-0.75 0.96875 -1.515625 1.3125q-0.75 0.328125 -1.890625 0.328125q-1.5 0 -2.359375 -0.78125q-0.859375 -0.78125 -0.859375 -2.21875q0 -3.078125 4.921875 -3.234375l1.734375 -0.046875l0 -0.625q0 -1.203125 -0.515625 -1.765625q-0.515625 -0.578125 -1.65625 -0.578125q-1.265625 0 -2.875 0.78125l-0.46875 -1.1875q0.75 -0.40625 1.640625 -0.625q0.90625 -0.234375 1.796875 -0.234375q1.828125 0 2.703125 0.8125q0.875 0.796875 0.875 2.578125l0 6.9375l-1.140625 0zm-3.484375 -1.078125q1.4375 0 2.25 -0.78125q0.828125 -0.796875 0.828125 -2.21875l0 -0.921875l-1.53125 0.0625q-1.84375 0.0625 -2.65625 0.578125q-0.8125 0.5 -0.8125 1.5625q0 0.84375 0.5 1.28125q0.515625 0.4375 1.421875 0.4375zm5.985077 -9.09375l1.65625 0l2.21875 5.796875q0.734375 1.984375 0.921875 2.875l0.0625 0q0.125 -0.46875 0.5 -1.609375q0.390625 -1.15625 2.53125 -7.0625l1.65625 0l-4.375 11.578125q-0.65625 1.71875 -1.53125 2.4375q-0.859375 0.71875 -2.109375 0.71875q-0.71875 0 -1.390625 -0.15625l0 -1.234375q0.5 0.109375 1.140625 0.109375q1.578125 0 2.25 -1.78125l0.578125 -1.4375l-4.109375 -10.234375zm16.091003 -3.390625l3.84375 0q2.6875 0 3.890625 0.8125q1.21875 0.796875 1.21875 2.546875q0 1.203125 -0.671875 1.984375q-0.671875 0.78125 -1.96875 1.015625l0 0.09375q3.09375 0.53125 3.09375 3.25q0 1.8125 -1.234375 2.84375q-1.234375 1.015625 -3.4375 1.015625l-4.734375 0l0 -13.5625zm1.578125 5.8125l2.609375 0q1.65625 0 2.390625 -0.515625q0.734375 -0.53125 0.734375 -1.78125q0 -1.140625 -0.8125 -1.640625q-0.8125 -0.515625 -2.59375 -0.515625l-2.328125 0l0 4.453125zm0 1.328125l0 5.078125l2.828125 0q1.640625 0 2.46875 -0.625q0.84375 -0.640625 0.84375 -2.0q0 -1.265625 -0.859375 -1.859375q-0.84375 -0.59375 -2.578125 -0.59375l-2.703125 0zm16.541412 6.421875l-0.3125 -1.453125l-0.078125 0q-0.75 0.96875 -1.515625 1.3125q-0.75 0.328125 -1.890625 0.328125q-1.5 0 -2.359375 -0.78125q-0.859375 -0.78125 -0.859375 -2.21875q0 -3.078125 4.921875 -3.234375l1.734375 -0.046875l0 -0.625q0 -1.203125 -0.515625 -1.765625q-0.515625 -0.578125 -1.65625 -0.578125q-1.265625 0 -2.875 0.78125l-0.46875 -1.1875q0.75 -0.40625 1.640625 -0.625q0.90625 -0.234375 1.796875 -0.234375q1.828125 0 2.703125 0.8125q0.875 0.796875 0.875 2.578125l0 6.9375l-1.140625 0zm-3.484375 -1.078125q1.4375 0 2.25 -0.78125q0.828125 -0.796875 0.828125 -2.21875l0 -0.921875l-1.53125 0.0625q-1.84375 0.0625 -2.65625 0.578125q-0.8125 0.5 -0.8125 1.5625q0 0.84375 0.5 1.28125q0.515625 0.4375 1.421875 0.4375zm11.672607 1.265625q-2.21875 0 -3.4375 -1.359375q-1.203125 -1.359375 -1.203125 -3.84375q0 -2.5625 1.234375 -3.953125q1.234375 -1.390625 3.5 -1.390625q0.734375 0 1.46875 0.171875q0.734375 0.15625 1.15625 0.359375l-0.484375 1.3125q-0.5 -0.203125 -1.109375 -0.328125q-0.609375 -0.140625 -1.0625 -0.140625q-3.109375 0 -3.109375 3.953125q0 1.875 0.75 2.875q0.765625 1.0 2.25 1.0q1.28125 0 2.609375 -0.546875l0 1.359375q-1.015625 0.53125 -2.5625 0.53125zm6.3348694 -5.390625q0.390625 -0.5625 1.21875 -1.484375l3.28125 -3.484375l1.828125 0l-4.125 4.34375l4.40625 5.828125l-1.859375 0l-3.59375 -4.8125l-1.15625 1.015625l0 3.796875l-1.515625 0l0 -14.4375l1.515625 0l0 7.65625q0 0.515625 -0.078125 1.578125l0.078125 0zm12.55835 5.390625q-2.25 0 -3.5625 -1.375q-1.296875 -1.375 -1.296875 -3.8125q0 -2.453125 1.203125 -3.90625q1.21875 -1.453125 3.265625 -1.453125q1.90625 0 3.015625 1.265625q1.125 1.25 1.125 3.3125l0 0.96875l-7.015625 0q0.046875 1.796875 0.90625 2.734375q0.859375 0.921875 2.421875 0.921875q1.640625 0 3.25 -0.6875l0 1.375q-0.8125 0.34375 -1.546875 0.5q-0.734375 0.15625 -1.765625 0.15625zm-0.40625 -9.25q-1.234375 0 -1.96875 0.796875q-0.71875 0.796875 -0.84375 2.203125l5.3125 0q0 -1.453125 -0.65625 -2.21875q-0.640625 -0.78125 -1.84375 -0.78125zm13.544922 9.0625l0 -6.578125q0 -1.25 -0.578125 -1.859375q-0.5625 -0.609375 -1.765625 -0.609375q-1.59375 0 -2.34375 0.875q-0.734375 0.859375 -0.734375 2.84375l0 5.328125l-1.53125 0l0 -10.171875l1.25 0l0.25 1.390625l0.0625 0q0.484375 -0.75 1.328125 -1.15625q0.859375 -0.421875 1.90625 -0.421875q1.84375 0 2.765625 0.890625q0.921875 0.890625 0.921875 2.828125l0 6.640625l-1.53125 0zm11.403778 -1.359375l-0.078125 0q-1.0625 1.546875 -3.1875 1.546875q-2.0 0 -3.109375 -1.359375q-1.109375 -1.375 -1.109375 -3.890625q0 -2.515625 1.109375 -3.90625q1.125 -1.390625 3.109375 -1.390625q2.0625 0 3.171875 1.515625l0.125 0l-0.078125 -0.734375l-0.03125 -0.71875l0 -4.140625l1.546875 0l0 14.4375l-1.25 0l-0.21875 -1.359375zm-3.078125 0.25q1.578125 0 2.28125 -0.859375q0.71875 -0.859375 0.71875 -2.765625l0 -0.328125q0 -2.15625 -0.71875 -3.078125q-0.71875 -0.921875 -2.296875 -0.921875q-1.359375 0 -2.078125 1.0625q-0.71875 1.046875 -0.71875 2.96875q0 1.9375 0.71875 2.9375q0.71875 0.984375 2.09375 0.984375z" fill-rule="nonzero"></path><path fill="#393939" d="m0 180.84357l0 0c0 -4.7798004 3.8747897 -8.654587 8.654585 -8.654587l216.42311 0c2.2953339 0 4.4966736 0.91181946 6.1197205 2.5348663c1.6230469 1.6230469 2.5348663 3.8243713 2.5348663 6.1197205l0 121.9664c0 4.7798157 -3.8747864 8.654602 -8.654587 8.654602l-216.42311 0c-4.779795 0 -8.654585 -3.8747864 -8.654585 -8.654602z" fill-rule="nonzero"></path><path fill="#ffffff" d="m87.413025 201.64381l-1.5625 0l-2.734375 -9.078125q-0.1875 -0.609375 -0.4375 -1.515625q-0.234375 -0.921875 -0.25 -1.109375q-0.203125 1.21875 -0.640625 2.671875l-2.65625 9.03125l-1.5625 0l-3.609375 -13.5625l1.671875 0l2.140625 8.375q0.453125 1.765625 0.65625 3.1875q0.25 -1.6875 0.734375 -3.3125l2.4375 -8.25l1.671875 0l2.546875 8.328125q0.4375 1.4375 0.75 3.234375q0.171875 -1.3125 0.671875 -3.203125l2.125 -8.359375l1.671875 0l-3.625 13.5625zm9.490356 0.1875q-2.25 0 -3.5625 -1.375q-1.296875 -1.375 -1.296875 -3.8125q0 -2.453125 1.203125 -3.90625q1.21875 -1.453125 3.265625 -1.453125q1.90625 0 3.015625 1.265625q1.125 1.25 1.125 3.3125l0 0.96875l-7.015625 0q0.046875 1.796875 0.90625 2.734375q0.859375 0.921875 2.421875 0.921875q1.640625 0 3.25 -0.6875l0 1.375q-0.8125 0.34375 -1.546875 0.5q-0.734375 0.15625 -1.765625 0.15625zm-0.40625 -9.25q-1.234375 0 -1.96875 0.796875q-0.71875 0.796875 -0.84375 2.203125l5.3125 0q0 -1.453125 -0.65625 -2.21875q-0.640625 -0.78125 -1.84375 -0.78125zm11.310562 -1.265625q2.015625 0 3.109375 1.375q1.109375 1.359375 1.109375 3.859375q0 2.5 -1.125 3.890625q-1.109375 1.390625 -3.09375 1.390625q-0.984375 0 -1.8125 -0.359375q-0.8125 -0.375 -1.375 -1.140625l-0.109375 0l-0.328125 1.3125l-1.09375 0l0 -14.4375l1.53125 0l0 3.515625q0 1.171875 -0.078125 2.109375l0.078125 0q1.078125 -1.515625 3.1875 -1.515625zm-0.21875 1.28125q-1.578125 0 -2.28125 0.90625q-0.6875 0.90625 -0.6875 3.046875q0 2.140625 0.71875 3.0625q0.71875 0.921875 2.28125 0.921875q1.421875 0 2.109375 -1.03125q0.703125 -1.03125 0.703125 -2.96875q0 -1.984375 -0.703125 -2.953125q-0.6875 -0.984375 -2.140625 -0.984375zm20.606796 -0.5625q0 2.0625 -1.40625 3.171875q-1.40625 1.109375 -4.03125 1.109375l-1.59375 0l0 5.328125l-1.578125 0l0 -13.5625l3.515625 0q5.09375 0 5.09375 3.953125zm-7.03125 2.921875l1.421875 0q2.09375 0 3.03125 -0.671875q0.9375 -0.6875 0.9375 -2.171875q0 -1.34375 -0.890625 -2.0q-0.875 -0.671875 -2.734375 -0.671875l-1.765625 0l0 5.515625zm15.685135 6.6875l-0.3125 -1.453125l-0.078125 0q-0.75 0.96875 -1.515625 1.3125q-0.75 0.328125 -1.890625 0.328125q-1.5 0 -2.359375 -0.78125q-0.859375 -0.78125 -0.859375 -2.21875q0 -3.078125 4.921875 -3.234375l1.734375 -0.046875l0 -0.625q0 -1.203125 -0.515625 -1.765625q-0.515625 -0.578125 -1.65625 -0.578125q-1.265625 0 -2.875 0.78125l-0.46875 -1.1875q0.75 -0.40625 1.640625 -0.625q0.90625 -0.234375 1.796875 -0.234375q1.828125 0 2.703125 0.8125q0.875 0.796875 0.875 2.578125l0 6.9375l-1.140625 0zm-3.484375 -1.078125q1.4375 0 2.25 -0.78125q0.828125 -0.796875 0.828125 -2.21875l0 -0.921875l-1.53125 0.0625q-1.84375 0.0625 -2.65625 0.578125q-0.8125 0.5 -0.8125 1.5625q0 0.84375 0.5 1.28125q0.515625 0.4375 1.421875 0.4375zm15.922577 -9.09375l0 0.984375l-1.875 0.21875q0.25 0.328125 0.453125 0.859375q0.203125 0.515625 0.203125 1.171875q0 1.484375 -1.015625 2.375q-1.015625 0.890625 -2.796875 0.890625q-0.453125 0 -0.859375 -0.0625q-0.984375 0.515625 -0.984375 1.296875q0 0.421875 0.34375 0.625q0.34375 0.203125 1.1875 0.203125l1.796875 0q1.640625 0 2.53125 0.703125q0.890625 0.6875 0.890625 2.015625q0 1.6875 -1.359375 2.5625q-1.359375 0.890625 -3.953125 0.890625q-1.984375 0 -3.078125 -0.75q-1.078125 -0.734375 -1.078125 -2.09375q0 -0.921875 0.59375 -1.609375q0.59375 -0.671875 1.671875 -0.90625q-0.390625 -0.171875 -0.65625 -0.546875q-0.265625 -0.375 -0.265625 -0.859375q0 -0.5625 0.296875 -0.96875q0.296875 -0.421875 0.9375 -0.8125q-0.78125 -0.328125 -1.28125 -1.109375q-0.5 -0.78125 -0.5 -1.78125q0 -1.671875 1.0 -2.578125q1.0 -0.90625 2.84375 -0.90625q0.796875 0 1.4375 0.1875l3.515625 0zm-8.109375 11.875q0 0.828125 0.6875 1.25q0.703125 0.4375 2.0 0.4375q1.9375 0 2.875 -0.578125q0.9375 -0.578125 0.9375 -1.578125q0 -0.828125 -0.515625 -1.15625q-0.515625 -0.3125 -1.921875 -0.3125l-1.84375 0q-1.046875 0 -1.640625 0.5q-0.578125 0.5 -0.578125 1.4375zm0.84375 -8.609375q0 1.0625 0.59375 1.609375q0.609375 0.546875 1.6875 0.546875q2.25 0 2.25 -2.1875q0 -2.296875 -2.28125 -2.296875q-1.09375 0 -1.671875 0.59375q-0.578125 0.578125 -0.578125 1.734375zm13.455231 7.09375q-2.25 0 -3.5625 -1.375q-1.296875 -1.375 -1.296875 -3.8125q0 -2.453125 1.203125 -3.90625q1.21875 -1.453125 3.265625 -1.453125q1.90625 0 3.015625 1.265625q1.125 1.25 1.125 3.3125l0 0.96875l-7.015625 0q0.046875 1.796875 0.90625 2.734375q0.859375 0.921875 2.421875 0.921875q1.640625 0 3.25 -0.6875l0 1.375q-0.8125 0.34375 -1.546875 0.5q-0.734375 0.15625 -1.765625 0.15625zm-0.40625 -9.25q-1.234375 0 -1.96875 0.796875q-0.71875 0.796875 -0.84375 2.203125l5.3125 0q0 -1.453125 -0.65625 -2.21875q-0.640625 -0.78125 -1.84375 -0.78125z" fill-rule="nonzero"></path><path fill="#ffba54" d="m12.257217 228.95801l116.62457 0l4.98172 4.98172l0 24.90805l-121.60629 0z" fill-rule="nonzero"></path><path fill="#000000" d="m34.514153 248.24644l-5.625 -2.46875l0 -0.578125l5.625 -2.796875l0 0.859375l-4.578125 2.1875l4.578125 1.921875l0 0.875zm5.470703 -6.375q-1.40625 0 -2.234375 0.9375q-0.8125 0.9375 -0.8125 2.578125q0 1.671875 0.78125 2.59375q0.796875 0.921875 2.25 0.921875q0.90625 0 2.046875 -0.328125l0 0.875q-0.890625 0.34375 -2.1875 0.34375q-1.890625 0 -2.921875 -1.15625q-1.03125 -1.15625 -1.03125 -3.265625q0 -1.328125 0.484375 -2.3125q0.5 -1.0 1.4375 -1.53125q0.9375 -0.546875 2.203125 -0.546875q1.34375 0 2.359375 0.484375l-0.421875 0.859375q-0.984375 -0.453125 -1.953125 -0.453125zm9.3046875 4.578125q0 1.578125 -0.796875 2.46875q-0.78125 0.875 -2.1875 0.875q-0.859375 0 -1.53125 -0.40625q-0.65625 -0.40625 -1.03125 -1.15625q-0.359375 -0.765625 -0.359375 -1.78125q0 -1.5625 0.78125 -2.4375q0.796875 -0.890625 2.1875 -0.890625q1.34375 0 2.140625 0.90625q0.796875 0.890625 0.796875 2.421875zm-4.890625 0q0 1.234375 0.484375 1.875q0.5 0.640625 1.453125 0.640625q0.953125 0 1.4375 -0.640625q0.5 -0.640625 0.5 -1.875q0 -1.21875 -0.5 -1.859375q-0.484375 -0.640625 -1.453125 -0.640625q-0.953125 0 -1.4375 0.640625q-0.484375 0.625 -0.484375 1.859375zm10.982422 3.21875l0 -4.15625q0 -0.78125 -0.359375 -1.171875q-0.34375 -0.390625 -1.109375 -0.390625q-1.015625 0 -1.484375 0.546875q-0.46875 0.546875 -0.46875 1.796875l0 3.375l-0.96875 0l0 -6.421875l0.796875 0l0.15625 0.875l0.046875 0q0.296875 -0.46875 0.828125 -0.734375q0.546875 -0.265625 1.203125 -0.265625q1.171875 0 1.75 0.5625q0.59375 0.5625 0.59375 1.796875l0 4.1875l-0.984375 0zm5.0527344 -0.6875q0.25 0 0.484375 -0.03125q0.25 -0.046875 0.390625 -0.078125l0 0.734375q-0.15625 0.078125 -0.46875 0.125q-0.296875 0.0625 -0.546875 0.0625q-1.859375 0 -1.859375 -1.96875l0 -3.828125l-0.921875 0l0 -0.46875l0.921875 -0.40625l0.40625 -1.359375l0.5625 0l0 1.484375l1.859375 0l0 0.75l-1.859375 0l0 3.78125q0 0.578125 0.265625 0.890625q0.28125 0.3125 0.765625 0.3125zm4.876953 0.8125q-1.421875 0 -2.25 -0.875q-0.828125 -0.875 -0.828125 -2.40625q0 -1.5625 0.765625 -2.46875q0.765625 -0.921875 2.0625 -0.921875q1.203125 0 1.90625 0.796875q0.703125 0.796875 0.703125 2.09375l0 0.625l-4.421875 0q0.03125 1.125 0.5625 1.71875q0.546875 0.578125 1.53125 0.578125q1.03125 0 2.046875 -0.4375l0 0.875q-0.515625 0.21875 -0.984375 0.3125q-0.453125 0.109375 -1.09375 0.109375zm-0.265625 -5.84375q-0.78125 0 -1.25 0.5q-0.453125 0.5 -0.53125 1.390625l3.359375 0q0 -0.921875 -0.40625 -1.40625q-0.40625 -0.484375 -1.171875 -0.484375zm8.669922 5.71875l0 -4.15625q0 -0.78125 -0.359375 -1.171875q-0.34375 -0.390625 -1.109375 -0.390625q-1.015625 0 -1.484375 0.546875q-0.46875 0.546875 -0.46875 1.796875l0 3.375l-0.96875 0l0 -6.421875l0.796875 0l0.15625 0.875l0.046875 0q0.296875 -0.46875 0.828125 -0.734375q0.546875 -0.265625 1.203125 -0.265625q1.171875 0 1.75 0.5625q0.59375 0.5625 0.59375 1.796875l0 4.1875l-0.984375 0zm5.0527344 -0.6875q0.25 0 0.484375 -0.03125q0.25 -0.046875 0.390625 -0.078125l0 0.734375q-0.15625 0.078125 -0.46875 0.125q-0.296875 0.0625 -0.546875 0.0625q-1.859375 0 -1.859375 -1.96875l0 -3.828125l-0.921875 0l0 -0.46875l0.921875 -0.40625l0.40625 -1.359375l0.5625 0l0 1.484375l1.859375 0l0 0.75l-1.859375 0l0 3.78125q0 0.578125 0.265625 0.890625q0.28125 0.3125 0.765625 0.3125zm5.4160156 0.6875l0 -8.5625l1.0 0l0 8.5625l-1.0 0zm5.283203 -0.6875q0.25 0 0.484375 -0.03125q0.25 -0.046875 0.390625 -0.078125l0 0.734375q-0.15625 0.078125 -0.46875 0.125q-0.296875 0.0625 -0.546875 0.0625q-1.859375 0 -1.859375 -1.96875l0 -3.828125l-0.921875 0l0 -0.46875l0.921875 -0.40625l0.40625 -1.359375l0.5625 0l0 1.484375l1.859375 0l0 0.75l-1.859375 0l0 3.78125q0 0.578125 0.265625 0.890625q0.28125 0.3125 0.765625 0.3125zm4.876953 0.8125q-1.421875 0 -2.25 -0.875q-0.828125 -0.875 -0.828125 -2.40625q0 -1.5625 0.765625 -2.46875q0.765625 -0.921875 2.0625 -0.921875q1.203125 0 1.90625 0.796875q0.703125 0.796875 0.703125 2.09375l0 0.625l-4.421875 0q0.03125 1.125 0.5625 1.71875q0.546875 0.578125 1.53125 0.578125q1.03125 0 2.046875 -0.4375l0 0.875q-0.515625 0.21875 -0.984375 0.3125q-0.453125 0.109375 -1.09375 0.109375zm-0.265625 -5.84375q-0.78125 0 -1.25 0.5q-0.453125 0.5 -0.53125 1.390625l3.359375 0q0 -0.921875 -0.40625 -1.40625q-0.40625 -0.484375 -1.171875 -0.484375zm12.466797 5.71875l0 -4.171875q0 -0.78125 -0.328125 -1.15625q-0.328125 -0.390625 -1.015625 -0.390625q-0.90625 0 -1.34375 0.53125q-0.4375 0.515625 -0.4375 1.59375l0 3.59375l-0.96875 0l0 -4.171875q0 -0.78125 -0.328125 -1.15625q-0.328125 -0.390625 -1.03125 -0.390625q-0.90625 0 -1.34375 0.546875q-0.421875 0.546875 -0.421875 1.796875l0 3.375l-0.96875 0l0 -6.421875l0.796875 0l0.15625 0.875l0.046875 0q0.265625 -0.46875 0.765625 -0.734375q0.515625 -0.265625 1.125 -0.265625q1.515625 0 1.96875 1.09375l0.046875 0q0.296875 -0.5 0.828125 -0.796875q0.546875 -0.296875 1.25 -0.296875q1.09375 0 1.625 0.5625q0.546875 0.5625 0.546875 1.796875l0 4.1875l-0.96875 0zm2.5527344 -2.296875l4.59375 -1.921875l-4.59375 -2.1875l0 -0.859375l5.625 2.796875l0 0.578125l-5.625 2.46875l0 -0.875z" fill-rule="nonzero"></path><path fill="#ffba54" d="m12.267716 269.26248l116.62457 0l4.98172 4.98172l0 24.90802l-121.60629 0z" fill-rule="nonzero"></path><path fill="#000000" d="m34.52465 288.5509l-5.624998 -2.46875l0 -0.578125l5.624998 -2.796875l0 0.859375l-4.578123 2.1875l4.578123 1.921875l0 0.875zm5.470703 -6.375q-1.40625 0 -2.234375 0.9375q-0.8125 0.9375 -0.8125 2.578125q0 1.671875 0.78125 2.59375q0.796875 0.921875 2.25 0.921875q0.90625 0 2.046875 -0.328125l0 0.875q-0.890625 0.34375 -2.1875 0.34375q-1.890625 0 -2.921875 -1.15625q-1.03125 -1.15625 -1.03125 -3.265625q0 -1.328125 0.484375 -2.3125q0.5 -1.0 1.4375 -1.53125q0.9375 -0.546875 2.203125 -0.546875q1.34375 0 2.359375 0.484375l-0.421875 0.859375q-0.984375 -0.453125 -1.953125 -0.453125zm9.3046875 4.578125q0 1.578125 -0.796875 2.46875q-0.78125 0.875 -2.1875 0.875q-0.859375 0 -1.53125 -0.40625q-0.65625 -0.40625 -1.03125 -1.15625q-0.359375 -0.765625 -0.359375 -1.78125q0 -1.5625 0.78125 -2.4375q0.796875 -0.890625 2.1875 -0.890625q1.34375 0 2.140625 0.90625q0.796875 0.890625 0.796875 2.421875zm-4.890625 0q0 1.234375 0.484375 1.875q0.5 0.640625 1.453125 0.640625q0.953125 0 1.4375 -0.640625q0.5 -0.640625 0.5 -1.875q0 -1.21875 -0.5 -1.859375q-0.484375 -0.640625 -1.453125 -0.640625q-0.953125 0 -1.4375 0.640625q-0.484375 0.625 -0.484375 1.859375zm10.982422 3.21875l0 -4.15625q0 -0.78125 -0.359375 -1.171875q-0.34375 -0.390625 -1.109375 -0.390625q-1.015625 0 -1.484375 0.546875q-0.46875 0.546875 -0.46875 1.796875l0 3.375l-0.96875 0l0 -6.421875l0.796875 0l0.15625 0.875l0.046875 0q0.296875 -0.46875 0.828125 -0.734375q0.546875 -0.265625 1.203125 -0.265625q1.171875 0 1.75 0.5625q0.59375 0.5625 0.59375 1.796875l0 4.1875l-0.984375 0zm5.0527344 -0.6875q0.25 0 0.484375 -0.03125q0.25 -0.046875 0.390625 -0.078125l0 0.734375q-0.15625 0.078125 -0.46875 0.125q-0.296875 0.0625 -0.546875 0.0625q-1.859375 0 -1.859375 -1.96875l0 -3.828125l-0.921875 0l0 -0.46875l0.921875 -0.40625l0.40625 -1.359375l0.5625 0l0 1.484375l1.859375 0l0 0.75l-1.859375 0l0 3.78125q0 0.578125 0.265625 0.890625q0.28125 0.3125 0.765625 0.3125zm4.876953 0.8125q-1.421875 0 -2.25 -0.875q-0.828125 -0.875 -0.828125 -2.40625q0 -1.5625 0.765625 -2.46875q0.765625 -0.921875 2.0625 -0.921875q1.203125 0 1.90625 0.796875q0.703125 0.796875 0.703125 2.09375l0 0.625l-4.421875 0q0.03125 1.125 0.5625 1.71875q0.546875 0.578125 1.53125 0.578125q1.03125 0 2.046875 -0.4375l0 0.875q-0.515625 0.21875 -0.984375 0.3125q-0.453125 0.109375 -1.09375 0.109375zm-0.265625 -5.84375q-0.78125 0 -1.25 0.5q-0.453125 0.5 -0.53125 1.390625l3.359375 0q0 -0.921875 -0.40625 -1.40625q-0.40625 -0.484375 -1.171875 -0.484375zm8.669922 5.71875l0 -4.15625q0 -0.78125 -0.359375 -1.171875q-0.34375 -0.390625 -1.109375 -0.390625q-1.015625 0 -1.484375 0.546875q-0.46875 0.546875 -0.46875 1.796875l0 3.375l-0.96875 0l0 -6.421875l0.796875 0l0.15625 0.875l0.046875 0q0.296875 -0.46875 0.828125 -0.734375q0.546875 -0.265625 1.203125 -0.265625q1.171875 0 1.75 0.5625q0.59375 0.5625 0.59375 1.796875l0 4.1875l-0.984375 0zm5.0527344 -0.6875q0.25 0 0.484375 -0.03125q0.25 -0.046875 0.390625 -0.078125l0 0.734375q-0.15625 0.078125 -0.46875 0.125q-0.296875 0.0625 -0.546875 0.0625q-1.859375 0 -1.859375 -1.96875l0 -3.828125l-0.921875 0l0 -0.46875l0.921875 -0.40625l0.40625 -1.359375l0.5625 0l0 1.484375l1.859375 0l0 0.75l-1.859375 0l0 3.78125q0 0.578125 0.265625 0.890625q0.28125 0.3125 0.765625 0.3125zm5.4160156 0.6875l0 -8.5625l1.0 0l0 8.5625l-1.0 0zm5.283203 -0.6875q0.25 0 0.484375 -0.03125q0.25 -0.046875 0.390625 -0.078125l0 0.734375q-0.15625 0.078125 -0.46875 0.125q-0.296875 0.0625 -0.546875 0.0625q-1.859375 0 -1.859375 -1.96875l0 -3.828125l-0.921875 0l0 -0.46875l0.921875 -0.40625l0.40625 -1.359375l0.5625 0l0 1.484375l1.859375 0l0 0.75l-1.859375 0l0 3.78125q0 0.578125 0.265625 0.890625q0.28125 0.3125 0.765625 0.3125zm4.876953 0.8125q-1.421875 0 -2.25 -0.875q-0.828125 -0.875 -0.828125 -2.40625q0 -1.5625 0.765625 -2.46875q0.765625 -0.921875 2.0625 -0.921875q1.203125 0 1.90625 0.796875q0.703125 0.796875 0.703125 2.09375l0 0.625l-4.421875 0q0.03125 1.125 0.5625 1.71875q0.546875 0.578125 1.53125 0.578125q1.03125 0 2.046875 -0.4375l0 0.875q-0.515625 0.21875 -0.984375 0.3125q-0.453125 0.109375 -1.09375 0.109375zm-0.265625 -5.84375q-0.78125 0 -1.25 0.5q-0.453125 0.5 -0.53125 1.390625l3.359375 0q0 -0.921875 -0.40625 -1.40625q-0.40625 -0.484375 -1.171875 -0.484375zm12.466797 5.71875l0 -4.171875q0 -0.78125 -0.328125 -1.15625q-0.328125 -0.390625 -1.015625 -0.390625q-0.90625 0 -1.34375 0.53125q-0.4375 0.515625 -0.4375 1.59375l0 3.59375l-0.96875 0l0 -4.171875q0 -0.78125 -0.328125 -1.15625q-0.328125 -0.390625 -1.03125 -0.390625q-0.90625 0 -1.34375 0.546875q-0.421875 0.546875 -0.421875 1.796875l0 3.375l-0.96875 0l0 -6.421875l0.796875 0l0.15625 0.875l0.046875 0q0.265625 -0.46875 0.765625 -0.734375q0.515625 -0.265625 1.125 -0.265625q1.515625 0 1.96875 1.09375l0.046875 0q0.296875 -0.5 0.828125 -0.796875q0.546875 -0.296875 1.25 -0.296875q1.09375 0 1.625 0.5625q0.546875 0.5625 0.546875 1.796875l0 4.1875l-0.96875 0zm2.5527344 -2.296875l4.59375 -1.921875l-4.59375 -2.1875l0 -0.859375l5.625 2.796875l0 0.578125l-5.625 2.46875l0 -0.875z" fill-rule="nonzero"></path><path fill="#ff8400" d="m323.18896 150.52504l0 0c0 -2.7513428 2.2304077 -4.981735 4.9817505 -4.981735l213.69006 0c1.321228 0 2.588379 0.52485657 3.522644 1.4591217c0.93426514 0.9342499 1.4591064 2.2013702 1.4591064 3.5226135l0 19.9263c0 2.7513428 -2.2304077 4.981735 -4.9817505 4.981735l-213.69006 0c-2.7513428 0 -4.9817505 -2.2303925 -4.9817505 -4.981735z" fill-rule="nonzero"></path><path stroke="#000000" stroke-width="2.0" stroke-linejoin="round" stroke-linecap="butt" d="m323.18896 150.52504l0 0c0 -2.7513428 2.2304077 -4.981735 4.9817505 -4.981735l213.69006 0c1.321228 0 2.588379 0.52485657 3.522644 1.4591217c0.93426514 0.9342499 1.4591064 2.2013702 1.4591064 3.5226135l0 19.9263c0 2.7513428 -2.2304077 4.981735 -4.9817505 4.981735l-213.69006 0c-2.7513428 0 -4.9817505 -2.2303925 -4.9817505 -4.981735z" fill-rule="nonzero"></path><path fill="#ffffff" d="m381.672 160.52007q0 2.828125 -1.53125 4.328125q-1.53125 1.5 -4.421875 1.5l-3.15625 0l0 -11.421875l3.5 0q2.65625 0 4.125 1.484375q1.484375 1.46875 1.484375 4.109375zm-1.40625 0.046875q0 -2.234375 -1.125 -3.359375q-1.109375 -1.140625 -3.328125 -1.140625l-1.921875 0l0 9.125l1.609375 0q2.375 0 3.5625 -1.15625q1.203125 -1.171875 1.203125 -3.46875zm5.0546875 5.78125l-1.296875 0l0 -8.5625l1.296875 0l0 8.5625zm-1.40625 -10.890625q0 -0.4375 0.21875 -0.640625q0.21875 -0.21875 0.546875 -0.21875q0.3125 0 0.53125 0.21875q0.234375 0.203125 0.234375 0.640625q0 0.4375 -0.234375 0.65625q-0.21875 0.21875 -0.53125 0.21875q-0.328125 0 -0.546875 -0.21875q-0.21875 -0.21875 -0.21875 -0.65625zm11.171875 2.328125l0 0.8125l-1.59375 0.1875q0.21875 0.28125 0.390625 0.71875q0.171875 0.4375 0.171875 1.0q0 1.25 -0.859375 2.0q-0.859375 0.75 -2.359375 0.75q-0.375 0 -0.71875 -0.0625q-0.828125 0.4375 -0.828125 1.109375q0 0.34375 0.28125 0.515625q0.296875 0.171875 1.0 0.171875l1.515625 0q1.390625 0 2.140625 0.59375q0.75 0.578125 0.75 1.703125q0 1.421875 -1.140625 2.15625q-1.140625 0.75 -3.328125 0.75q-1.6875 0 -2.59375 -0.625q-0.90625 -0.625 -0.90625 -1.765625q0 -0.78125 0.5 -1.359375q0.5 -0.5625 1.40625 -0.765625q-0.328125 -0.15625 -0.5625 -0.46875q-0.21875 -0.3125 -0.21875 -0.71875q0 -0.46875 0.25 -0.8125q0.25 -0.359375 0.796875 -0.6875q-0.671875 -0.28125 -1.09375 -0.9375q-0.40625 -0.65625 -0.40625 -1.5q0 -1.40625 0.84375 -2.15625q0.84375 -0.765625 2.390625 -0.765625q0.671875 0 1.203125 0.15625l2.96875 0zm-6.828125 10.0q0 0.703125 0.578125 1.0625q0.59375 0.359375 1.6875 0.359375q1.625 0 2.40625 -0.5q0.796875 -0.484375 0.796875 -1.3125q0 -0.703125 -0.4375 -0.984375q-0.421875 -0.265625 -1.609375 -0.265625l-1.5625 0q-0.875 0 -1.375 0.421875q-0.484375 0.4375 -0.484375 1.21875zm0.703125 -7.265625q0 0.90625 0.5 1.375q0.515625 0.453125 1.421875 0.453125q1.890625 0 1.890625 -1.84375q0 -1.9375 -1.921875 -1.9375q-0.90625 0 -1.40625 0.5q-0.484375 0.484375 -0.484375 1.453125zm9.171875 5.828125l-1.296875 0l0 -8.5625l1.296875 0l0 8.5625zm-1.40625 -10.890625q0 -0.4375 0.21875 -0.640625q0.21875 -0.21875 0.546875 -0.21875q0.3125 0 0.53125 0.21875q0.234375 0.203125 0.234375 0.640625q0 0.4375 -0.234375 0.65625q-0.21875 0.21875 -0.53125 0.21875q-0.328125 0 -0.546875 -0.21875q-0.21875 -0.21875 -0.21875 -0.65625zm6.921875 9.96875q0.34375 0 0.65625 -0.046875q0.328125 -0.046875 0.515625 -0.109375l0 1.0q-0.203125 0.109375 -0.625 0.171875q-0.40625 0.0625 -0.734375 0.0625q-2.484375 0 -2.484375 -2.625l0 -5.09375l-1.21875 0l0 -0.625l1.21875 -0.53125l0.546875 -1.828125l0.75 0l0 1.984375l2.484375 0l0 1.0l-2.484375 0l0 5.046875q0 0.765625 0.359375 1.1875q0.375 0.40625 1.015625 0.40625zm8.1484375 0.921875l-0.25 -1.21875l-0.0625 0q-0.640625 0.796875 -1.28125 1.09375q-0.640625 0.28125 -1.59375 0.28125q-1.265625 0 -2.0 -0.65625q-0.71875 -0.65625 -0.71875 -1.875q0 -2.59375 4.15625 -2.71875l1.453125 -0.046875l0 -0.53125q0 -1.0 -0.4375 -1.484375q-0.4375 -0.484375 -1.390625 -0.484375q-1.0625 0 -2.421875 0.65625l-0.390625 -0.984375q0.625 -0.34375 1.375 -0.53125q0.765625 -0.203125 1.515625 -0.203125q1.53125 0 2.265625 0.6875q0.75 0.671875 0.75 2.171875l0 5.84375l-0.96875 0zm-2.921875 -0.921875q1.203125 0 1.890625 -0.65625q0.703125 -0.671875 0.703125 -1.859375l0 -0.78125l-1.296875 0.0625q-1.546875 0.046875 -2.234375 0.484375q-0.6875 0.421875 -0.6875 1.3125q0 0.703125 0.421875 1.078125q0.4375 0.359375 1.203125 0.359375zm7.8515625 0.921875l-1.296875 0l0 -12.15625l1.296875 0l0 12.15625zm12.125 -5.984375l3.890625 0l0 5.546875q-0.90625 0.296875 -1.84375 0.4375q-0.9375 0.15625 -2.171875 0.15625q-2.59375 0 -4.046875 -1.546875q-1.4375 -1.546875 -1.4375 -4.328125q0 -1.78125 0.703125 -3.109375q0.71875 -1.34375 2.0625 -2.046875q1.34375 -0.71875 3.15625 -0.71875q1.828125 0 3.40625 0.671875l-0.515625 1.171875q-1.546875 -0.65625 -2.984375 -0.65625q-2.078125 0 -3.25 1.25q-1.171875 1.234375 -1.171875 3.4375q0 2.3125 1.125 3.515625q1.125 1.1875 3.3125 1.1875q1.1875 0 2.328125 -0.265625l0 -3.515625l-2.5625 0l0 -1.1875zm13.8203125 1.6875q0 2.09375 -1.0625 3.28125q-1.046875 1.171875 -2.90625 1.171875q-1.140625 0 -2.03125 -0.53125q-0.890625 -0.546875 -1.375 -1.546875q-0.484375 -1.015625 -0.484375 -2.375q0 -2.09375 1.046875 -3.25q1.046875 -1.171875 2.90625 -1.171875q1.796875 0 2.84375 1.203125q1.0625 1.1875 1.0625 3.21875zm-6.515625 0q0 1.640625 0.65625 2.5q0.65625 0.859375 1.921875 0.859375q1.28125 0 1.9375 -0.84375q0.65625 -0.859375 0.65625 -2.515625q0 -1.625 -0.65625 -2.46875q-0.65625 -0.859375 -1.953125 -0.859375q-1.265625 0 -1.921875 0.84375q-0.640625 0.828125 -0.640625 2.484375zm16.179688 0q0 2.09375 -1.0625 3.28125q-1.046875 1.171875 -2.90625 1.171875q-1.140625 0 -2.03125 -0.53125q-0.890625 -0.546875 -1.375 -1.546875q-0.484375 -1.015625 -0.484375 -2.375q0 -2.09375 1.046875 -3.25q1.046875 -1.171875 2.90625 -1.171875q1.796875 0 2.84375 1.203125q1.0625 1.1875 1.0625 3.21875zm-6.515625 0q0 1.640625 0.65625 2.5q0.65625 0.859375 1.921875 0.859375q1.28125 0 1.9375 -0.84375q0.65625 -0.859375 0.65625 -2.515625q0 -1.625 -0.65625 -2.46875q-0.65625 -0.859375 -1.953125 -0.859375q-1.265625 0 -1.921875 0.84375q-0.640625 0.828125 -0.640625 2.484375zm14.6171875 3.140625l-0.0625 0q-0.90625 1.3125 -2.6875 1.3125q-1.6875 0 -2.625 -1.140625q-0.921875 -1.15625 -0.921875 -3.28125q0 -2.109375 0.9375 -3.28125q0.9375 -1.171875 2.609375 -1.171875q1.734375 0 2.671875 1.265625l0.09375 0l-0.046875 -0.625l-0.03125 -0.59375l0 -3.484375l1.296875 0l0 12.15625l-1.0625 0l-0.171875 -1.15625zm-2.59375 0.21875q1.328125 0 1.921875 -0.71875q0.609375 -0.71875 0.609375 -2.328125l0 -0.28125q0 -1.8125 -0.609375 -2.59375q-0.609375 -0.78125 -1.9375 -0.78125q-1.140625 0 -1.75 0.890625q-0.59375 0.890625 -0.59375 2.5q0 1.640625 0.59375 2.484375q0.609375 0.828125 1.765625 0.828125zm12.1015625 -1.40625q0 1.203125 -0.890625 1.859375q-0.890625 0.640625 -2.5 0.640625q-1.703125 0 -2.65625 -0.546875l0 -1.203125q0.609375 0.3125 1.3125 0.5q0.71875 0.171875 1.375 0.171875q1.015625 0 1.5625 -0.3125q0.546875 -0.328125 0.546875 -1.0q0 -0.5 -0.4375 -0.84375q-0.4375 -0.359375 -1.6875 -0.84375q-1.203125 -0.453125 -1.703125 -0.78125q-0.5 -0.328125 -0.75 -0.75q-0.25 -0.421875 -0.25 -1.015625q0 -1.046875 0.84375 -1.640625q0.859375 -0.609375 2.34375 -0.609375q1.390625 0 2.703125 0.5625l-0.453125 1.046875q-1.296875 -0.53125 -2.34375 -0.53125q-0.921875 0 -1.390625 0.296875q-0.46875 0.28125 -0.46875 0.796875q0 0.34375 0.171875 0.59375q0.1875 0.234375 0.578125 0.453125q0.390625 0.21875 1.5 0.625q1.515625 0.5625 2.046875 1.125q0.546875 0.5625 0.546875 1.40625zm13.6328125 2.34375l-1.421875 -3.640625l-4.578125 0l-1.40625 3.640625l-1.34375 0l4.515625 -11.46875l1.125 0l4.484375 11.46875l-1.375 0zm-1.828125 -4.828125l-1.328125 -3.546875q-0.265625 -0.671875 -0.53125 -1.640625q-0.171875 0.75 -0.5 1.640625l-1.34375 3.546875l3.703125 0zm12.015625 -3.265625q0 1.734375 -1.1875 2.671875q-1.171875 0.921875 -3.375 0.921875l-1.34375 0l0 4.5l-1.328125 0l0 -11.421875l2.953125 0q4.28125 0 4.28125 3.328125zm-5.90625 2.453125l1.1875 0q1.765625 0 2.546875 -0.5625q0.796875 -0.578125 0.796875 -1.828125q0 -1.140625 -0.75 -1.6875q-0.734375 -0.5625 -2.296875 -0.5625l-1.484375 0l0 4.640625zm8.3046875 5.640625l0 -11.421875l1.328125 0l0 11.421875l-1.328125 0z" fill-rule="nonzero"></path><path fill="#000000" fill-opacity="0.0" d="m235.10236 38.351707l0 0.28578568l101.44882 0l0 107.96617" fill-rule="nonzero"></path><path stroke="#ffba54" stroke-width="2.0" stroke-linejoin="round" stroke-linecap="butt" d="m235.10236 38.351707l0 0.28578186l101.44882 0l0 95.96618" fill-rule="evenodd"></path><path fill="#ffba54" stroke="#ffba54" stroke-width="2.0" stroke-linecap="butt" d="m333.2477 134.60367l3.3034668 9.076202l3.3034668 -9.076202z" fill-rule="evenodd"></path><path fill="#000000" fill-opacity="0.0" d="m255.48557 13.217848l126.92914 0l0 25.13386l-126.92914 0z" fill-rule="nonzero"></path><path fill="#000000" d="m269.4387 22.692902q0.53125 0 0.953125 0.078125l-0.15625 1.140625q-0.5 -0.109375 -0.890625 -0.109375q-0.96875 0 -1.671875 0.796875q-0.6875 0.78125 -0.6875 1.953125l0 4.3125l-1.203125 0l0 -8.03125l1.0 0l0.140625 1.484375l0.046875 0q0.453125 -0.78125 1.078125 -1.203125q0.640625 -0.421875 1.390625 -0.421875zm5.717102 8.3125q-1.78125 0 -2.8125 -1.078125q-1.03125 -1.078125 -1.03125 -3.015625q0 -1.9375 0.953125 -3.078125q0.953125 -1.140625 2.5625 -1.140625q1.515625 0 2.390625 1.0q0.875 0.984375 0.875 2.609375l0 0.765625l-5.515625 0q0.03125 1.421875 0.703125 2.15625q0.6875 0.71875 1.90625 0.71875q1.296875 0 2.5625 -0.53125l0 1.078125q-0.640625 0.28125 -1.21875 0.390625q-0.5625 0.125 -1.375 0.125zm-0.34375 -7.296875q-0.953125 0 -1.53125 0.640625q-0.578125 0.625 -0.6875 1.734375l4.203125 0q0 -1.15625 -0.515625 -1.765625q-0.515625 -0.609375 -1.46875 -0.609375zm11.738281 -0.875l0 0.765625l-1.484375 0.1875q0.203125 0.25 0.359375 0.671875q0.171875 0.40625 0.171875 0.921875q0 1.1875 -0.8125 1.890625q-0.8125 0.703125 -2.21875 0.703125q-0.359375 0 -0.671875 -0.0625q-0.765625 0.40625 -0.765625 1.03125q0 0.328125 0.265625 0.484375q0.265625 0.15625 0.9375 0.15625l1.40625 0q1.3125 0 2.0 0.5625q0.703125 0.546875 0.703125 1.59375q0 1.328125 -1.0625 2.03125q-1.0625 0.703125 -3.125 0.703125q-1.5625 0 -2.421875 -0.59375q-0.859375 -0.578125 -0.859375 -1.65625q0 -0.734375 0.46875 -1.265625q0.46875 -0.53125 1.328125 -0.71875q-0.3125 -0.140625 -0.53125 -0.4375q-0.203125 -0.296875 -0.203125 -0.6875q0 -0.4375 0.234375 -0.765625q0.234375 -0.328125 0.75 -0.640625q-0.625 -0.25 -1.015625 -0.859375q-0.390625 -0.625 -0.390625 -1.40625q0 -1.328125 0.78125 -2.03125q0.796875 -0.71875 2.25 -0.71875q0.625 0 1.125 0.140625l2.78125 0zm-6.40625 9.375q0 0.65625 0.546875 0.984375q0.5625 0.34375 1.578125 0.34375q1.53125 0 2.265625 -0.453125q0.734375 -0.453125 0.734375 -1.25q0 -0.640625 -0.40625 -0.90625q-0.390625 -0.25 -1.5 -0.25l-1.46875 0q-0.828125 0 -1.296875 0.390625q-0.453125 0.40625 -0.453125 1.140625zm0.65625 -6.796875q0 0.84375 0.46875 1.28125q0.484375 0.421875 1.34375 0.421875q1.78125 0 1.78125 -1.734375q0 -1.796875 -1.8125 -1.796875q-0.84375 0 -1.3125 0.46875q-0.46875 0.453125 -0.46875 1.359375zm8.420074 5.453125l-1.203125 0l0 -8.03125l1.203125 0l0 8.03125zm-1.3125 -10.203125q0 -0.421875 0.203125 -0.609375q0.203125 -0.203125 0.515625 -0.203125q0.296875 0 0.5 0.203125q0.21875 0.203125 0.21875 0.609375q0 0.40625 -0.21875 0.609375q-0.203125 0.203125 -0.5 0.203125q-0.3125 0 -0.515625 -0.203125q-0.203125 -0.203125 -0.203125 -0.609375zm8.988251 8.015625q0 1.125 -0.84375 1.734375q-0.828125 0.59375 -2.34375 0.59375q-1.59375 0 -2.484375 -0.5l0 -1.125q0.578125 0.296875 1.234375 0.46875q0.671875 0.15625 1.28125 0.15625q0.953125 0 1.46875 -0.296875q0.515625 -0.3125 0.515625 -0.9375q0 -0.46875 -0.40625 -0.796875q-0.40625 -0.328125 -1.59375 -0.78125q-1.109375 -0.421875 -1.59375 -0.734375q-0.46875 -0.3125 -0.703125 -0.703125q-0.21875 -0.40625 -0.21875 -0.953125q0 -0.96875 0.796875 -1.53125q0.796875 -0.578125 2.1875 -0.578125q1.296875 0 2.53125 0.53125l-0.4375 0.984375q-1.203125 -0.5 -2.1875 -0.5q-0.859375 0 -1.296875 0.28125q-0.4375 0.265625 -0.4375 0.734375q0 0.328125 0.15625 0.5625q0.171875 0.21875 0.53125 0.421875q0.375 0.203125 1.40625 0.59375q1.4375 0.515625 1.9375 1.046875q0.5 0.53125 0.5 1.328125zm4.398041 1.328125q0.328125 0 0.625 -0.046875q0.3125 -0.046875 0.484375 -0.09375l0 0.921875q-0.203125 0.09375 -0.59375 0.15625q-0.375 0.0625 -0.6875 0.0625q-2.328125 0 -2.328125 -2.453125l0 -4.765625l-1.140625 0l0 -0.59375l1.140625 -0.5l0.515625 -1.71875l0.703125 0l0 1.859375l2.328125 0l0 0.953125l-2.328125 0l0 4.71875q0 0.71875 0.34375 1.109375q0.34375 0.390625 0.9375 0.390625zm5.9865417 1.0q-1.78125 0 -2.8125 -1.078125q-1.03125 -1.078125 -1.03125 -3.015625q0 -1.9375 0.953125 -3.078125q0.953125 -1.140625 2.5625 -1.140625q1.515625 0 2.390625 1.0q0.875 0.984375 0.875 2.609375l0 0.765625l-5.515625 0q0.03125 1.421875 0.703125 2.15625q0.6875 0.71875 1.90625 0.71875q1.296875 0 2.5625 -0.53125l0 1.078125q-0.640625 0.28125 -1.21875 0.390625q-0.5625 0.125 -1.375 0.125zm-0.34375 -7.296875q-0.953125 0 -1.53125 0.640625q-0.578125 0.625 -0.6875 1.734375l4.203125 0q0 -1.15625 -0.515625 -1.765625q-0.515625 -0.609375 -1.46875 -0.609375zm8.832062 -1.015625q0.53125 0 0.953125 0.078125l-0.15625 1.140625q-0.5 -0.109375 -0.890625 -0.109375q-0.96875 0 -1.671875 0.796875q-0.6875 0.78125 -0.6875 1.953125l0 4.3125l-1.203125 0l0 -8.03125l1.0 0l0.140625 1.484375l0.046875 0q0.453125 -0.78125 1.078125 -1.203125q0.640625 -0.421875 1.390625 -0.421875zm12.696167 0.140625l0 0.765625l-1.484375 0.1875q0.203125 0.25 0.359375 0.671875q0.171875 0.40625 0.171875 0.921875q0 1.1875 -0.8125 1.890625q-0.8125 0.703125 -2.21875 0.703125q-0.359375 0 -0.671875 -0.0625q-0.765625 0.40625 -0.765625 1.03125q0 0.328125 0.265625 0.484375q0.265625 0.15625 0.9375 0.15625l1.40625 0q1.3125 0 2.0 0.5625q0.703125 0.546875 0.703125 1.59375q0 1.328125 -1.0625 2.03125q-1.0625 0.703125 -3.125 0.703125q-1.5625 0 -2.421875 -0.59375q-0.859375 -0.578125 -0.859375 -1.65625q0 -0.734375 0.46875 -1.265625q0.46875 -0.53125 1.328125 -0.71875q-0.3125 -0.140625 -0.53125 -0.4375q-0.203125 -0.296875 -0.203125 -0.6875q0 -0.4375 0.234375 -0.765625q0.234375 -0.328125 0.75 -0.640625q-0.625 -0.25 -1.015625 -0.859375q-0.390625 -0.625 -0.390625 -1.40625q0 -1.328125 0.78125 -2.03125q0.796875 -0.71875 2.25 -0.71875q0.625 0 1.125 0.140625l2.78125 0zm-6.40625 9.375q0 0.65625 0.546875 0.984375q0.5625 0.34375 1.578125 0.34375q1.53125 0 2.265625 -0.453125q0.734375 -0.453125 0.734375 -1.25q0 -0.640625 -0.40625 -0.90625q-0.390625 -0.25 -1.5 -0.25l-1.46875 0q-0.828125 0 -1.296875 0.390625q-0.453125 0.40625 -0.453125 1.140625zm0.65625 -6.796875q0 0.84375 0.46875 1.28125q0.484375 0.421875 1.34375 0.421875q1.78125 0 1.78125 -1.734375q0 -1.796875 -1.8125 -1.796875q-0.84375 0 -1.3125 0.46875q-0.46875 0.453125 -0.46875 1.359375zm14.138824 1.4375q0 1.953125 -1.0 3.0625q-0.984375 1.09375 -2.71875 1.09375q-1.078125 0 -1.921875 -0.5q-0.828125 -0.5 -1.28125 -1.4375q-0.453125 -0.953125 -0.453125 -2.21875q0 -1.96875 0.984375 -3.0625q0.984375 -1.09375 2.71875 -1.09375q1.6875 0 2.671875 1.125q1.0 1.109375 1.0 3.03125zm-6.109375 0q0 1.53125 0.609375 2.34375q0.609375 0.796875 1.8125 0.796875q1.1875 0 1.796875 -0.796875q0.625 -0.796875 0.625 -2.34375q0 -1.53125 -0.625 -2.328125q-0.609375 -0.796875 -1.8125 -0.796875q-1.203125 0 -1.8125 0.78125q-0.59375 0.78125 -0.59375 2.34375zm14.961792 0q0 1.953125 -1.0 3.0625q-0.984375 1.09375 -2.71875 1.09375q-1.078125 0 -1.921875 -0.5q-0.828125 -0.5 -1.28125 -1.4375q-0.453125 -0.953125 -0.453125 -2.21875q0 -1.96875 0.984375 -3.0625q0.984375 -1.09375 2.71875 -1.09375q1.6875 0 2.671875 1.125q1.0 1.109375 1.0 3.03125zm-6.109375 0q0 1.53125 0.609375 2.34375q0.609375 0.796875 1.8125 0.796875q1.1875 0 1.796875 -0.796875q0.625 -0.796875 0.625 -2.34375q0 -1.53125 -0.625 -2.328125q-0.609375 -0.796875 -1.8125 -0.796875q-1.203125 0 -1.8125 0.78125q-0.59375 0.78125 -0.59375 2.34375zm13.4930725 2.9375l-0.0625 0q-0.84375 1.21875 -2.515625 1.21875q-1.578125 0 -2.453125 -1.0625q-0.875 -1.078125 -0.875 -3.0625q0 -2.0 0.875 -3.09375q0.875 -1.09375 2.453125 -1.09375q1.625 0 2.5 1.1875l0.09375 0l-0.046875 -0.578125l-0.03125 -0.5625l0 -3.265625l1.21875 0l0 11.390625l-0.984375 0l-0.171875 -1.078125zm-2.421875 0.203125q1.234375 0 1.796875 -0.671875q0.5625 -0.6875 0.5625 -2.1875l0 -0.25q0 -1.71875 -0.578125 -2.4375q-0.5625 -0.734375 -1.796875 -0.734375q-1.078125 0 -1.640625 0.828125q-0.5625 0.828125 -0.5625 2.34375q0 1.546875 0.5625 2.328125q0.5625 0.78125 1.65625 0.78125zm11.121857 -1.3125q0 1.125 -0.84375 1.734375q-0.828125 0.59375 -2.34375 0.59375q-1.59375 0 -2.484375 -0.5l0 -1.125q0.578125 0.296875 1.234375 0.46875q0.671875 0.15625 1.28125 0.15625q0.953125 0 1.46875 -0.296875q0.515625 -0.3125 0.515625 -0.9375q0 -0.46875 -0.40625 -0.796875q-0.40625 -0.328125 -1.59375 -0.78125q-1.109375 -0.421875 -1.59375 -0.734375q-0.46875 -0.3125 -0.703125 -0.703125q-0.21875 -0.40625 -0.21875 -0.953125q0 -0.96875 0.796875 -1.53125q0.796875 -0.578125 2.1875 -0.578125q1.296875 0 2.53125 0.53125l-0.4375 0.984375q-1.203125 -0.5 -2.1875 -0.5q-0.859375 0 -1.296875 0.28125q-0.4375 0.265625 -0.4375 0.734375q0 0.328125 0.15625 0.5625q0.171875 0.21875 0.53125 0.421875q0.375 0.203125 1.40625 0.59375q1.4375 0.515625 1.9375 1.046875q0.5 0.53125 0.5 1.328125z" fill-rule="nonzero"></path><path fill="#000000" fill-opacity="0.0" d="m178.33855 130.06824l131.11812 0l0 25.133865l-131.11812 0z" fill-rule="nonzero"></path><path fill="#000000" d="m192.2448 140.63704l-2.046875 0l0 7.078125l-1.21875 0l0 -7.078125l-1.421875 0l0 -0.546875l1.421875 -0.453125l0 -0.4375q0 -2.96875 2.59375 -2.96875q0.640625 0 1.5 0.265625l-0.328125 0.96875q-0.703125 -0.21875 -1.1875 -0.21875q-0.703125 0 -1.03125 0.453125q-0.328125 0.453125 -0.328125 1.46875l0 0.515625l2.046875 0l0 0.953125zm4.747772 7.21875q-1.78125 0 -2.8125 -1.078125q-1.03125 -1.078125 -1.03125 -3.015625q0 -1.9375 0.953125 -3.078125q0.953125 -1.140625 2.5625 -1.140625q1.515625 0 2.390625 1.0q0.875 0.984375 0.875 2.609375l0 0.765625l-5.515625 0q0.03125 1.421875 0.703125 2.15625q0.6875 0.71875 1.90625 0.71875q1.296875 0 2.5625 -0.53125l0 1.078125q-0.640625 0.28125 -1.21875 0.390625q-0.5625 0.125 -1.375 0.125zm-0.34375 -7.296875q-0.953125 0 -1.53125 0.640625q-0.578125 0.625 -0.6875 1.734375l4.203125 0q0 -1.15625 -0.515625 -1.765625q-0.515625 -0.609375 -1.46875 -0.609375zm7.7539215 6.296875q0.328125 0 0.625 -0.046875q0.3125 -0.046875 0.484375 -0.09375l0 0.921875q-0.203125 0.09375 -0.59375 0.15625q-0.375 0.0625 -0.6875 0.0625q-2.328125 0 -2.328125 -2.453125l0 -4.765625l-1.140625 0l0 -0.59375l1.140625 -0.5l0.515625 -1.71875l0.703125 0l0 1.859375l2.328125 0l0 0.953125l-2.328125 0l0 4.71875q0 0.71875 0.34375 1.109375q0.34375 0.390625 0.9375 0.390625zm5.799057 1.0q-1.75 0 -2.703125 -1.0625q-0.953125 -1.078125 -0.953125 -3.046875q0 -2.015625 0.96875 -3.109375q0.96875 -1.09375 2.765625 -1.09375q0.578125 0 1.15625 0.125q0.578125 0.125 0.90625 0.296875l-0.375 1.03125q-0.40625 -0.171875 -0.875 -0.265625q-0.46875 -0.109375 -0.84375 -0.109375q-2.4375 0 -2.4375 3.109375q0 1.484375 0.59375 2.28125q0.59375 0.78125 1.765625 0.78125q1.0 0 2.0625 -0.421875l0 1.078125q-0.8125 0.40625 -2.03125 0.40625zm9.258713 -0.140625l0 -5.1875q0 -0.984375 -0.453125 -1.46875q-0.4375 -0.484375 -1.390625 -0.484375q-1.265625 0 -1.859375 0.6875q-0.578125 0.6875 -0.578125 2.25l0 4.203125l-1.203125 0l0 -11.390625l1.203125 0l0 3.4375q0 0.625 -0.046875 1.03125l0.0625 0q0.359375 -0.578125 1.015625 -0.90625q0.671875 -0.328125 1.515625 -0.328125q1.484375 0 2.21875 0.703125q0.734375 0.6875 0.734375 2.21875l0 5.234375l-1.21875 0zm10.5215 0.140625q-1.75 0 -2.703125 -1.0625q-0.953125 -1.078125 -0.953125 -3.046875q0 -2.015625 0.96875 -3.109375q0.96875 -1.09375 2.765625 -1.09375q0.578125 0 1.15625 0.125q0.578125 0.125 0.90625 0.296875l-0.375 1.03125q-0.40625 -0.171875 -0.875 -0.265625q-0.46875 -0.109375 -0.84375 -0.109375q-2.4375 0 -2.4375 3.109375q0 1.484375 0.59375 2.28125q0.59375 0.78125 1.765625 0.78125q1.0 0 2.0625 -0.421875l0 1.078125q-0.8125 0.40625 -2.03125 0.40625zm10.696213 -4.15625q0 1.953125 -1.0 3.0625q-0.984375 1.09375 -2.71875 1.09375q-1.078125 0 -1.921875 -0.5q-0.828125 -0.5 -1.28125 -1.4375q-0.453125 -0.953125 -0.453125 -2.21875q0 -1.96875 0.984375 -3.0625q0.984375 -1.09375 2.71875 -1.09375q1.6875 0 2.671875 1.125q1.0 1.109375 1.0 3.03125zm-6.109375 0q0 1.53125 0.609375 2.34375q0.609375 0.796875 1.8125 0.796875q1.1875 0 1.796875 -0.796875q0.625 -0.796875 0.625 -2.34375q0 -1.53125 -0.625 -2.328125q-0.609375 -0.796875 -1.8125 -0.796875q-1.203125 0 -1.8125 0.78125q-0.59375 0.78125 -0.59375 2.34375zm13.524307 4.015625l0 -5.1875q0 -0.984375 -0.453125 -1.46875q-0.4375 -0.484375 -1.390625 -0.484375q-1.265625 0 -1.859375 0.6875q-0.578125 0.671875 -0.578125 2.234375l0 4.21875l-1.203125 0l0 -8.03125l0.984375 0l0.1875 1.109375l0.0625 0q0.375 -0.59375 1.046875 -0.921875q0.671875 -0.328125 1.5 -0.328125q1.453125 0 2.1875 0.703125q0.734375 0.6875 0.734375 2.234375l0 5.234375l-1.21875 0zm6.0893097 -0.859375q0.328125 0 0.625 -0.046875q0.3125 -0.046875 0.484375 -0.09375l0 0.921875q-0.203125 0.09375 -0.59375 0.15625q-0.375 0.0625 -0.6875 0.0625q-2.328125 0 -2.328125 -2.453125l0 -4.765625l-1.140625 0l0 -0.59375l1.140625 -0.5l0.515625 -1.71875l0.703125 0l0 1.859375l2.328125 0l0 0.953125l-2.328125 0l0 4.71875q0 0.71875 0.34375 1.109375q0.34375 0.390625 0.9375 0.390625zm5.9865723 1.0q-1.78125 0 -2.8125 -1.078125q-1.03125 -1.078125 -1.03125 -3.015625q0 -1.9375 0.953125 -3.078125q0.953125 -1.140625 2.5625 -1.140625q1.515625 0 2.390625 1.0q0.875 0.984375 0.875 2.609375l0 0.765625l-5.515625 0q0.03125 1.421875 0.703125 2.15625q0.6875 0.71875 1.90625 0.71875q1.296875 0 2.5625 -0.53125l0 1.078125q-0.640625 0.28125 -1.21875 0.390625q-0.5625 0.125 -1.375 0.125zm-0.34375 -7.296875q-0.953125 0 -1.53125 0.640625q-0.578125 0.625 -0.6875 1.734375l4.203125 0q0 -1.15625 -0.515625 -1.765625q-0.515625 -0.609375 -1.46875 -0.609375zm10.660156 7.15625l0 -5.1875q0 -0.984375 -0.453125 -1.46875q-0.4375 -0.484375 -1.390625 -0.484375q-1.265625 0 -1.859375 0.6875q-0.578125 0.671875 -0.578125 2.234375l0 4.21875l-1.203125 0l0 -8.03125l0.984375 0l0.1875 1.109375l0.0625 0q0.375 -0.59375 1.046875 -0.921875q0.671875 -0.328125 1.5 -0.328125q1.453125 0 2.1875 0.703125q0.734375 0.6875 0.734375 2.234375l0 5.234375l-1.21875 0zm6.089325 -0.859375q0.328125 0 0.625 -0.046875q0.3125 -0.046875 0.484375 -0.09375l0 0.921875q-0.203125 0.09375 -0.59375 0.15625q-0.375 0.0625 -0.6875 0.0625q-2.328125 0 -2.328125 -2.453125l0 -4.765625l-1.140625 0l0 -0.59375l1.140625 -0.5l0.515625 -1.71875l0.703125 0l0 1.859375l2.328125 0l0 0.953125l-2.328125 0l0 4.71875q0 0.71875 0.34375 1.109375q0.34375 0.390625 0.9375 0.390625z" fill-rule="nonzero"></path><path fill="#000000" fill-opacity="0.0" d="m133.86351 243.9029l48.220474 23.748016" fill-rule="nonzero"></path><path stroke="#595959" stroke-width="2.0" stroke-linejoin="round" stroke-linecap="butt" d="m133.86351 243.9029l48.220474 23.748016" fill-rule="nonzero"></path><path fill="#000000" fill-opacity="0.0" d="m133.87401 284.20734l57.732285 -20.031494" fill-rule="nonzero"></path><path stroke="#595959" stroke-width="2.0" stroke-linejoin="round" stroke-linecap="butt" d="m133.87401 284.20734l57.732285 -20.031494" fill-rule="nonzero"></path><path fill="#ff8400" d="m147.7874 267.21783l0 0c0 -19.021194 15.737015 -34.440933 35.149612 -34.440933l0 0c9.32225 0 18.262695 3.6285858 24.854523 10.087524c6.5918274 6.4589233 10.295074 15.219101 10.295074 24.353409l0 0c0 19.02121 -15.737015 34.44095 -35.149597 34.44095l0 0c-19.412598 0 -35.149612 -15.419739 -35.149612 -34.44095z" fill-rule="nonzero"></path><path stroke="#000000" stroke-width="2.0" stroke-linejoin="round" stroke-linecap="butt" d="m147.7874 267.21783l0 0c0 -19.021194 15.737015 -34.440933 35.149612 -34.440933l0 0c9.32225 0 18.262695 3.6285858 24.854523 10.087524c6.5918274 6.4589233 10.295074 15.219101 10.295074 24.353409l0 0c0 19.02121 -15.737015 34.44095 -35.149597 34.44095l0 0c-19.412598 0 -35.149612 -15.419739 -35.149612 -34.44095z" fill-rule="nonzero"></path><path fill="#000000" fill-opacity="0.0" d="m218.08661 267.21783l217.6063 0l0 -74.64566" fill-rule="nonzero"></path><path stroke="#ffba54" stroke-width="2.0" stroke-linejoin="round" stroke-linecap="butt" d="m230.08661 267.21783l205.6063 0l0 -62.64566" fill-rule="evenodd"></path><path fill="#ffba54" stroke="#ffba54" stroke-width="2.0" stroke-linecap="butt" d="m230.08661 263.91437l-9.076187 3.3034668l9.076187 3.3034668z" fill-rule="evenodd"></path><path fill="#ffba54" stroke="#ffba54" stroke-width="2.0" stroke-linecap="butt" d="m438.99637 204.57217l-3.3034668 -9.076187l-3.3034668 9.076187z" fill-rule="evenodd"></path><path fill="#000000" fill-opacity="0.0" d="m430.35345 213.65501l145.3858 0l0 25.133865l-145.3858 0z" fill-rule="nonzero"></path><path fill="#000000" d="m444.3847 231.44257q-0.796875 0 -1.453125 -0.28125q-0.640625 -0.296875 -1.078125 -0.890625l-0.078125 0q0.078125 0.703125 0.078125 1.328125l0 3.3125l-1.203125 0l0 -11.640625l0.984375 0l0.171875 1.109375l0.046875 0q0.46875 -0.671875 1.09375 -0.953125q0.625 -0.296875 1.4375 -0.296875q1.59375 0 2.453125 1.09375q0.875 1.09375 0.875 3.0625q0 1.96875 -0.890625 3.0625q-0.875 1.09375 -2.4375 1.09375zm-0.1875 -7.28125q-1.21875 0 -1.78125 0.6875q-0.546875 0.671875 -0.5625 2.15625l0 0.28125q0 1.6875 0.5625 2.421875q0.578125 0.71875 1.8125 0.71875q1.046875 0 1.625 -0.84375q0.59375 -0.84375 0.59375 -2.3125q0 -1.5 -0.59375 -2.296875q-0.578125 -0.8125 -1.65625 -0.8125zm10.356232 7.140625l-0.234375 -1.140625l-0.0625 0q-0.59375 0.75 -1.203125 1.015625q-0.59375 0.265625 -1.484375 0.265625q-1.1875 0 -1.875 -0.609375q-0.671875 -0.609375 -0.671875 -1.75q0 -2.4375 3.890625 -2.546875l1.359375 -0.046875l0 -0.5q0 -0.9375 -0.40625 -1.390625q-0.40625 -0.453125 -1.296875 -0.453125q-1.0 0 -2.265625 0.609375l-0.375 -0.921875q0.59375 -0.328125 1.296875 -0.5q0.703125 -0.1875 1.421875 -0.1875q1.4375 0 2.125 0.640625q0.6875 0.625 0.6875 2.03125l0 5.484375l-0.90625 0zm-2.734375 -0.859375q1.125 0 1.765625 -0.625q0.65625 -0.625 0.65625 -1.734375l0 -0.734375l-1.21875 0.0625q-1.4375 0.046875 -2.078125 0.453125q-0.640625 0.390625 -0.640625 1.234375q0 0.65625 0.390625 1.0q0.40625 0.34375 1.125 0.34375zm4.682373 -7.171875l1.296875 0l1.765625 4.578125q0.578125 1.578125 0.71875 2.265625l0.0625 0q0.09375 -0.375 0.390625 -1.28125q0.3125 -0.90625 1.984375 -5.5625l1.3125 0l-3.453125 9.140625q-0.515625 1.359375 -1.203125 1.921875q-0.671875 0.578125 -1.671875 0.578125q-0.5625 0 -1.09375 -0.125l0 -0.984375q0.390625 0.09375 0.890625 0.09375q1.25 0 1.796875 -1.40625l0.4375 -1.140625l-3.234375 -8.078125zm15.676941 8.171875q-1.75 0 -2.703125 -1.0625q-0.953125 -1.078125 -0.953125 -3.046875q0 -2.015625 0.96875 -3.109375q0.96875 -1.09375 2.765625 -1.09375q0.578125 0 1.15625 0.125q0.578125 0.125 0.90625 0.296875l-0.375 1.03125q-0.40625 -0.171875 -0.875 -0.265625q-0.46875 -0.109375 -0.84375 -0.109375q-2.4375 0 -2.4375 3.109375q0 1.484375 0.59375 2.28125q0.59375 0.78125 1.765625 0.78125q1.0 0 2.0625 -0.421875l0 1.078125q-0.8125 0.40625 -2.03125 0.40625zm10.6961975 -4.15625q0 1.953125 -1.0 3.0625q-0.984375 1.09375 -2.71875 1.09375q-1.078125 0 -1.921875 -0.5q-0.828125 -0.5 -1.28125 -1.4375q-0.453125 -0.953125 -0.453125 -2.21875q0 -1.96875 0.984375 -3.0625q0.984375 -1.09375 2.71875 -1.09375q1.6875 0 2.671875 1.125q1.0 1.109375 1.0 3.03125zm-6.109375 0q0 1.53125 0.609375 2.34375q0.609375 0.796875 1.8125 0.796875q1.1875 0 1.796875 -0.796875q0.625 -0.796875 0.625 -2.34375q0 -1.53125 -0.625 -2.328125q-0.609375 -0.796875 -1.8125 -0.796875q-1.203125 0 -1.8125 0.78125q-0.59375 0.78125 -0.59375 2.34375zm13.5243225 4.015625l0 -5.1875q0 -0.984375 -0.453125 -1.46875q-0.4375 -0.484375 -1.390625 -0.484375q-1.265625 0 -1.859375 0.6875q-0.578125 0.671875 -0.578125 2.234375l0 4.21875l-1.203125 0l0 -8.03125l0.984375 0l0.1875 1.109375l0.0625 0q0.375 -0.59375 1.046875 -0.921875q0.671875 -0.328125 1.5 -0.328125q1.453125 0 2.1875 0.703125q0.734375 0.6875 0.734375 2.234375l0 5.234375l-1.21875 0zm6.0892944 -0.859375q0.328125 0 0.625 -0.046875q0.3125 -0.046875 0.484375 -0.09375l0 0.921875q-0.203125 0.09375 -0.59375 0.15625q-0.375 0.0625 -0.6875 0.0625q-2.328125 0 -2.328125 -2.453125l0 -4.765625l-1.140625 0l0 -0.59375l1.140625 -0.5l0.515625 -1.71875l0.703125 0l0 1.859375l2.328125 0l0 0.953125l-2.328125 0l0 4.71875q0 0.71875 0.34375 1.109375q0.34375 0.390625 0.9375 0.390625zm5.9865723 1.0q-1.78125 0 -2.8125 -1.078125q-1.03125 -1.078125 -1.03125 -3.015625q0 -1.9375 0.953125 -3.078125q0.953125 -1.140625 2.5625 -1.140625q1.515625 0 2.390625 1.0q0.875 0.984375 0.875 2.609375l0 0.765625l-5.515625 0q0.03125 1.421875 0.703125 2.15625q0.6875 0.71875 1.90625 0.71875q1.296875 0 2.5625 -0.53125l0 1.078125q-0.640625 0.28125 -1.21875 0.390625q-0.5625 0.125 -1.375 0.125zm-0.34375 -7.296875q-0.953125 0 -1.53125 0.640625q-0.578125 0.625 -0.6875 1.734375l4.203125 0q0 -1.15625 -0.515625 -1.765625q-0.515625 -0.609375 -1.46875 -0.609375zm10.660187 7.15625l0 -5.1875q0 -0.984375 -0.453125 -1.46875q-0.43753052 -0.484375 -1.3906555 -0.484375q-1.265625 0 -1.859375 0.6875q-0.578125 0.671875 -0.578125 2.234375l0 4.21875l-1.203125 0l0 -8.03125l0.984375 0l0.1875 1.109375l0.0625 0q0.375 -0.59375 1.046875 -0.921875q0.671875 -0.328125 1.5 -0.328125q1.4531555 0 2.1875305 0.703125q0.734375 0.6875 0.734375 2.234375l0 5.234375l-1.21875 0zm6.0892944 -0.859375q0.328125 0 0.625 -0.046875q0.3125 -0.046875 0.484375 -0.09375l0 0.921875q-0.203125 0.09375 -0.59375 0.15625q-0.375 0.0625 -0.6875 0.0625q-2.328125 0 -2.328125 -2.453125l0 -4.765625l-1.140625 0l0 -0.59375l1.140625 -0.5l0.515625 -1.71875l0.703125 0l0 1.859375l2.328125 0l0 0.953125l-2.328125 0l0 4.71875q0 0.71875 0.34375 1.109375q0.34375 0.390625 0.9375 0.390625z" fill-rule="nonzero"></path><path fill="#393939" d="m0.6902887 7.471052l0 0c0 -4.126148 3.3449037 -7.471052 7.471052 -7.471052l218.79018 0c1.9814453 0 3.8817291 0.7871264 5.2828217 2.1882205c1.4011078 1.401094 2.1882324 3.3013854 2.1882324 5.2828317l0 94.44372c0 4.126152 -3.3449097 7.471054 -7.471054 7.471054l-218.79018 0l0 0c-4.126148 0 -7.471052 -3.344902 -7.471052 -7.471054z" fill-rule="nonzero"></path><path fill="#ffffff" d="m101.129395 19.49882q0 2.0625 -1.40625 3.171875q-1.40625 1.109375 -4.03125 1.109375l-1.59375 0l0 5.328125l-1.578125 0l0 -13.5625l3.515625 0q5.09375 0 5.09375 3.953125zm-7.03125 2.921875l1.421875 0q2.09375 0 3.03125 -0.671875q0.9375 -0.6875 0.9375 -2.171875q0 -1.34375 -0.890625 -2.0q-0.875 -0.671875 -2.734375 -0.671875l-1.765625 0l0 5.515625zm10.966385 6.6875l-1.53125 0l0 -14.4375l1.53125 0l0 14.4375zm4.6249695 -10.171875l0 6.59375q0 1.25 0.5625 1.859375q0.578125 0.609375 1.78125 0.609375q1.59375 0 2.328125 -0.859375q0.734375 -0.875 0.734375 -2.859375l0 -5.34375l1.546875 0l0 10.171875l-1.265625 0l-0.234375 -1.359375l-0.078125 0q-0.46875 0.75 -1.3125 1.15625q-0.84375 0.390625 -1.921875 0.390625q-1.84375 0 -2.78125 -0.875q-0.921875 -0.890625 -0.921875 -2.828125l0 -6.65625l1.5625 0zm18.325638 0l0 0.984375l-1.875 0.21875q0.25 0.328125 0.453125 0.859375q0.203125 0.515625 0.203125 1.171875q0 1.484375 -1.015625 2.375q-1.015625 0.890625 -2.796875 0.890625q-0.453125 0 -0.859375 -0.0625q-0.984375 0.515625 -0.984375 1.296875q0 0.421875 0.34375 0.625q0.34375 0.203125 1.1875 0.203125l1.796875 0q1.640625 0 2.53125 0.703125q0.890625 0.6875 0.890625 2.015625q0 1.6875 -1.359375 2.562502q-1.359375 0.890625 -3.953125 0.890625q-1.984375 0 -3.078125 -0.75q-1.078125 -0.734375 -1.078125 -2.093752q0 -0.921875 0.59375 -1.609375q0.59375 -0.671875 1.671875 -0.90625q-0.390625 -0.171875 -0.65625 -0.546875q-0.265625 -0.375 -0.265625 -0.859375q0 -0.5625 0.296875 -0.96875q0.296875 -0.421875 0.9375 -0.8125q-0.78125 -0.328125 -1.28125 -1.109375q-0.5 -0.78125 -0.5 -1.78125q0 -1.671875 1.0 -2.578125q1.0 -0.90625 2.84375 -0.90625q0.796875 0 1.4375 0.1875l3.515625 0zm-8.109375 11.875q0 0.828125 0.6875 1.2500019q0.703125 0.4375 2.0 0.4375q1.9375 0 2.875 -0.5781269q0.9375 -0.578125 0.9375 -1.578125q0 -0.828125 -0.515625 -1.15625q-0.515625 -0.3125 -1.921875 -0.3125l-1.84375 0q-1.046875 0 -1.640625 0.5q-0.578125 0.5 -0.578125 1.4375zm0.84375 -8.609375q0 1.0625 0.59375 1.609375q0.609375 0.546875 1.6875 0.546875q2.25 0 2.25 -2.1875q0 -2.296875 -2.28125 -2.296875q-1.09375 0 -1.671875 0.59375q-0.578125 0.578125 -0.578125 1.734375zm10.705231 6.90625l-1.53125 0l0 -10.171875l1.53125 0l0 10.171875zm-1.671875 -12.921875q0 -0.53125 0.25 -0.765625q0.265625 -0.25 0.65625 -0.25q0.375 0 0.640625 0.25q0.28125 0.25 0.28125 0.765625q0 0.515625 -0.28125 0.78125q-0.265625 0.25 -0.640625 0.25q-0.390625 0 -0.65625 -0.25q-0.25 -0.265625 -0.25 -0.78125zm11.8124695 12.921875l0 -6.578125q0 -1.25 -0.578125 -1.859375q-0.5625 -0.609375 -1.765625 -0.609375q-1.59375 0 -2.34375 0.875q-0.734375 0.859375 -0.734375 2.84375l0 5.328125l-1.53125 0l0 -10.171875l1.25 0l0.25 1.390625l0.0625 0q0.484375 -0.75 1.328125 -1.15625q0.859375 -0.421875 1.90625 -0.421875q1.84375 0 2.765625 0.890625q0.921875 0.890625 0.921875 2.828125l0 6.640625l-1.53125 0z" fill-rule="nonzero"></path><path fill="#000000" fill-opacity="0.0" d="m239.50919 242.13872l197.03937 0l0 25.133865l-197.03937 0z" fill-rule="nonzero"></path><path fill="#000000" d="m253.54044 259.92627q-0.796875 0 -1.453125 -0.28125q-0.640625 -0.296875 -1.078125 -0.890625l-0.078125 0q0.078125 0.703125 0.078125 1.328125l0 3.3125l-1.203125 0l0 -11.640625l0.984375 0l0.171875 1.109375l0.046875 0q0.46875 -0.671875 1.09375 -0.953125q0.625 -0.296875 1.4375 -0.296875q1.59375 0 2.453125 1.09375q0.875 1.09375 0.875 3.0625q0 1.96875 -0.890625 3.0625q-0.875 1.09375 -2.4375 1.09375zm-0.1875 -7.28125q-1.21875 0 -1.78125 0.6875q-0.546875 0.671875 -0.5625 2.15625l0 0.28125q0 1.6875 0.5625 2.421875q0.578125 0.71875 1.8125 0.71875q1.046875 0 1.625 -0.84375q0.59375 -0.84375 0.59375 -2.3125q0 -1.5 -0.59375 -2.296875q-0.578125 -0.8125 -1.65625 -0.8125zm10.356262 7.140625l-0.234375 -1.140625l-0.0625 0q-0.59375 0.75 -1.203125 1.015625q-0.59375 0.265625 -1.484375 0.265625q-1.1875 0 -1.875 -0.609375q-0.671875 -0.609375 -0.671875 -1.75q0 -2.4375 3.890625 -2.546875l1.359375 -0.046875l0 -0.5q0 -0.9375 -0.40625 -1.390625q-0.40625 -0.453125 -1.296875 -0.453125q-1.0 0 -2.265625 0.609375l-0.375 -0.921875q0.59375 -0.328125 1.296875 -0.5q0.703125 -0.1875 1.421875 -0.1875q1.4375 0 2.125 0.640625q0.6875 0.625 0.6875 2.03125l0 5.484375l-0.90625 0zm-2.734375 -0.859375q1.125 0 1.765625 -0.625q0.65625 -0.625 0.65625 -1.734375l0 -0.734375l-1.21875 0.0625q-1.4375 0.046875 -2.078125 0.453125q-0.640625 0.390625 -0.640625 1.234375q0 0.65625 0.390625 1.0q0.40625 0.34375 1.125 0.34375zm4.6823425 -7.171875l1.296875 0l1.765625 4.578125q0.578125 1.578125 0.71875 2.265625l0.0625 0q0.09375 -0.375 0.390625 -1.28125q0.3125 -0.90625 1.984375 -5.5625l1.3125 0l-3.453125 9.140625q-0.515625 1.359375 -1.203125 1.921875q-0.671875 0.578125 -1.671875 0.578125q-0.5625 0 -1.09375 -0.125l0 -0.984375q0.390625 0.09375 0.890625 0.09375q1.25 0 1.796875 -1.40625l0.4375 -1.140625l-3.234375 -8.078125zm18.885376 8.03125l0 -5.21875q0 -0.96875 -0.40625 -1.4375q-0.40625 -0.484375 -1.265625 -0.484375q-1.140625 0 -1.6875 0.65625q-0.53125 0.640625 -0.53125 2.0l0 4.484375l-1.21875 0l0 -5.21875q0 -0.96875 -0.421875 -1.4375q-0.40625 -0.484375 -1.28125 -0.484375q-1.140625 0 -1.671875 0.6875q-0.53125 0.6875 -0.53125 2.234375l0 4.21875l-1.203125 0l0 -8.03125l0.984375 0l0.1875 1.109375l0.0625 0q0.34375 -0.59375 0.96875 -0.921875q0.625 -0.328125 1.40625 -0.328125q1.890625 0 2.46875 1.359375l0.046875 0q0.359375 -0.625 1.03125 -0.984375q0.6875 -0.375 1.5625 -0.375q1.359375 0 2.03125 0.703125q0.6875 0.6875 0.6875 2.234375l0 5.234375l-1.21875 0zm6.804779 0.140625q-1.78125 0 -2.8125 -1.078125q-1.03125 -1.078125 -1.03125 -3.015625q0 -1.9375 0.953125 -3.078125q0.953125 -1.140625 2.5625 -1.140625q1.515625 0 2.390625 1.0q0.875 0.984375 0.875 2.609375l0 0.765625l-5.515625 0q0.03125 1.421875 0.703125 2.15625q0.6875 0.71875 1.90625 0.71875q1.296875 0 2.5625 -0.53125l0 1.078125q-0.640625 0.28125 -1.21875 0.390625q-0.5625 0.125 -1.375 0.125zm-0.34375 -7.296875q-0.953125 0 -1.53125 0.640625q-0.578125 0.625 -0.6875 1.734375l4.203125 0q0 -1.15625 -0.515625 -1.765625q-0.515625 -0.609375 -1.46875 -0.609375zm10.660156 7.15625l0 -5.1875q0 -0.984375 -0.453125 -1.46875q-0.4375 -0.484375 -1.390625 -0.484375q-1.265625 0 -1.859375 0.6875q-0.578125 0.671875 -0.578125 2.234375l0 4.21875l-1.203125 0l0 -8.03125l0.984375 0l0.1875 1.109375l0.0625 0q0.375 -0.59375 1.046875 -0.921875q0.671875 -0.328125 1.5 -0.328125q1.453125 0 2.1875 0.703125q0.734375 0.6875 0.734375 2.234375l0 5.234375l-1.21875 0zm6.089325 -0.859375q0.328125 0 0.625 -0.046875q0.3125 -0.046875 0.484375 -0.09375l0 0.921875q-0.203125 0.09375 -0.59375 0.15625q-0.375 0.0625 -0.6875 0.0625q-2.328125 0 -2.328125 -2.453125l0 -4.765625l-1.140625 0l0 -0.59375l1.140625 -0.5l0.515625 -1.71875l0.703125 0l0 1.859375l2.328125 0l0 0.953125l-2.328125 0l0 4.71875q0 0.71875 0.34375 1.109375q0.34375 0.390625 0.9375 0.390625zm9.606232 1.0q-1.75 0 -2.703125 -1.0625q-0.953125 -1.078125 -0.953125 -3.046875q0 -2.015625 0.96875 -3.109375q0.96875 -1.09375 2.765625 -1.09375q0.578125 0 1.15625 0.125q0.578125 0.125 0.90625 0.296875l-0.375 1.03125q-0.40625 -0.171875 -0.875 -0.265625q-0.46875 -0.109375 -0.84375 -0.109375q-2.4375 0 -2.4375 3.109375q0 1.484375 0.59375 2.28125q0.59375 0.78125 1.765625 0.78125q1.0 0 2.0625 -0.421875l0 1.078125q-0.8125 0.40625 -2.03125 0.40625zm7.164978 0q-1.78125 0 -2.8125 -1.078125q-1.03125 -1.078125 -1.03125 -3.015625q0 -1.9375 0.953125 -3.078125q0.953125 -1.140625 2.5625 -1.140625q1.515625 0 2.390625 1.0q0.875 0.984375 0.875 2.609375l0 0.765625l-5.515625 0q0.03125 1.421875 0.703125 2.15625q0.6875 0.71875 1.90625 0.71875q1.296875 0 2.5625 -0.53125l0 1.078125q-0.640625 0.28125 -1.21875 0.390625q-0.5625 0.125 -1.375 0.125zm-0.34375 -7.296875q-0.953125 0 -1.53125 0.640625q-0.578125 0.625 -0.6875 1.734375l4.203125 0q0 -1.15625 -0.515625 -1.765625q-0.515625 -0.609375 -1.46875 -0.609375zm8.832031 -1.015625q0.53125 0 0.953125 0.078125l-0.15625 1.140625q-0.5 -0.109375 -0.890625 -0.109375q-0.96875 0 -1.671875 0.796875q-0.6875 0.78125 -0.6875 1.953125l0 4.3125l-1.203125 0l0 -8.03125l1.0 0l0.140625 1.484375l0.046875 0q0.453125 -0.78125 1.078125 -1.203125q0.640625 -0.421875 1.390625 -0.421875zm4.904602 7.3125q0.328125 0 0.625 -0.046875q0.3125 -0.046875 0.484375 -0.09375l0 0.921875q-0.203125 0.09375 -0.59375 0.15625q-0.375 0.0625 -0.6875 0.0625q-2.328125 0 -2.328125 -2.453125l0 -4.765625l-1.140625 0l0 -0.59375l1.140625 -0.5l0.515625 -1.71875l0.703125 0l0 1.859375l2.328125 0l0 0.953125l-2.328125 0l0 4.71875q0 0.71875 0.34375 1.109375q0.34375 0.390625 0.9375 0.390625zm3.7990723 0.859375l-1.203125 0l0 -8.03125l1.203125 0l0 8.03125zm-1.3125 -10.203125q0 -0.421875 0.203125 -0.609375q0.203125 -0.203125 0.515625 -0.203125q0.296875 0 0.5 0.203125q0.21875 0.203125 0.21875 0.609375q0 0.40625 -0.21875 0.609375q-0.203125 0.203125 -0.5 0.203125q-0.3125 0 -0.515625 -0.203125q-0.203125 -0.203125 -0.203125 -0.609375zm7.4257507 3.125l-2.046875 0l0 7.078125l-1.21875 0l0 -7.078125l-1.421875 0l0 -0.546875l1.421875 -0.453125l0 -0.4375q0 -2.96875 2.59375 -2.96875q0.640625 0 1.5 0.265625l-0.328125 0.96875q-0.703125 -0.21875 -1.1875 -0.21875q-0.703125 0 -1.03125 0.453125q-0.328125 0.453125 -0.328125 1.46875l0 0.515625l2.046875 0l0 0.953125zm2.5602722 7.078125l-1.203125 0l0 -8.03125l1.203125 0l0 8.03125zm-1.3125 -10.203125q0 -0.421875 0.203125 -0.609375q0.203125 -0.203125 0.515625 -0.203125q0.296875 0 0.5 0.203125q0.21875 0.203125 0.21875 0.609375q0 0.40625 -0.21875 0.609375q-0.203125 0.203125 -0.5 0.203125q-0.3125 0 -0.515625 -0.203125q-0.203125 -0.203125 -0.203125 -0.609375zm7.0195007 10.34375q-1.75 0 -2.703125 -1.0625q-0.953125 -1.078125 -0.953125 -3.046875q0 -2.015625 0.96875 -3.109375q0.96875 -1.09375 2.765625 -1.09375q0.578125 0 1.15625 0.125q0.578125 0.125 0.90625 0.296875l-0.375 1.03125q-0.40625 -0.171875 -0.875 -0.265625q-0.46875 -0.109375 -0.84375 -0.109375q-2.4375 0 -2.4375 3.109375q0 1.484375 0.59375 2.28125q0.59375 0.78125 1.765625 0.78125q1.0 0 2.0625 -0.421875l0 1.078125q-0.8125 0.40625 -2.03125 0.40625zm8.6961975 -0.140625l-0.234375 -1.140625l-0.0625 0q-0.59375 0.75 -1.203125 1.015625q-0.59375 0.265625 -1.484375 0.265625q-1.1875 0 -1.875 -0.609375q-0.671875 -0.609375 -0.671875 -1.75q0 -2.4375 3.890625 -2.546875l1.359375 -0.046875l0 -0.5q0 -0.9375 -0.40625 -1.390625q-0.40625 -0.453125 -1.296875 -0.453125q-1.0 0 -2.265625 0.609375l-0.375 -0.921875q0.59375 -0.328125 1.296875 -0.5q0.703125 -0.1875 1.421875 -0.1875q1.4375 0 2.125 0.640625q0.6875 0.625 0.6875 2.03125l0 5.484375l-0.90625 0zm-2.734375 -0.859375q1.125 0 1.765625 -0.625q0.65625 -0.625 0.65625 -1.734375l0 -0.734375l-1.21875 0.0625q-1.4375 0.046875 -2.078125 0.453125q-0.640625 0.390625 -0.640625 1.234375q0 0.65625 0.390625 1.0q0.40625 0.34375 1.125 0.34375zm8.541748 0q0.328125 0 0.625 -0.046875q0.3125 -0.046875 0.484375 -0.09375l0 0.921875q-0.203125 0.09375 -0.59375 0.15625q-0.375 0.0625 -0.6875 0.0625q-2.328125 0 -2.328125 -2.453125l0 -4.765625l-1.140625 0l0 -0.59375l1.140625 -0.5l0.515625 -1.71875l0.703125 0l0 1.859375l2.328125 0l0 0.953125l-2.328125 0l0 4.71875q0 0.71875 0.34375 1.109375q0.34375 0.390625 0.9375 0.390625zm5.9865417 1.0q-1.78125 0 -2.8125 -1.078125q-1.03125 -1.078125 -1.03125 -3.015625q0 -1.9375 0.953125 -3.078125q0.953125 -1.140625 2.5625 -1.140625q1.515625 0 2.390625 1.0q0.875 0.984375 0.875 2.609375l0 0.765625l-5.515625 0q0.03125 1.421875 0.703125 2.15625q0.6875 0.71875 1.90625 0.71875q1.296875 0 2.5625 -0.53125l0 1.078125q-0.640625 0.28125 -1.21875 0.390625q-0.5625 0.125 -1.375 0.125zm-0.34375 -7.296875q-0.953125 0 -1.53125 0.640625q-0.578125 0.625 -0.6875 1.734375l4.203125 0q0 -1.15625 -0.515625 -1.765625q-0.515625 -0.609375 -1.46875 -0.609375z" fill-rule="nonzero"></path><path fill="#000000" fill-opacity="0.0" d="m182.93701 232.7769l0 -139.40158" fill-rule="nonzero"></path><path stroke="#ffba54" stroke-width="2.0" stroke-linejoin="round" stroke-linecap="butt" d="m182.93701 220.7769l0 -127.40157" fill-rule="evenodd"></path><path fill="#ffba54" stroke="#ffba54" stroke-width="2.0" stroke-linecap="butt" d="m179.63354 220.7769l3.3034668 9.076202l3.3034668 -9.076202z" fill-rule="evenodd"></path><path fill="#000000" fill-opacity="0.0" d="m146.33858 232.76115l73.19685 0l0 66.39369l-73.19685 0z" fill-rule="nonzero"></path><path fill="#ffffff" d="m181.7456 259.27112q0 1.515625 -1.09375 2.359375q-1.09375 0.84375 -2.96875 0.84375q-2.03125 0 -3.125 -0.53125l0 -1.28125q0.703125 0.296875 1.53125 0.46875q0.828125 0.171875 1.640625 0.171875q1.328125 0 2.0 -0.5q0.671875 -0.5 0.671875 -1.40625q0 -0.59375 -0.234375 -0.96875q-0.234375 -0.375 -0.796875 -0.6875q-0.5625 -0.328125 -1.703125 -0.734375q-1.59375 -0.578125 -2.28125 -1.3593597q-0.671875 -0.78125 -0.671875 -2.03125q0 -1.328125 0.984375 -2.109375q1.0 -0.78125 2.625 -0.78125q1.703125 0 3.140625 0.625l-0.421875 1.15625q-1.40625 -0.59375 -2.75 -0.59375q-1.046875 0 -1.640625 0.453125q-0.59375 0.453125 -0.59375 1.265625q0 0.59375 0.21875 0.96875q0.21875 0.375 0.734375 0.703125q0.515625 0.3125 1.59375 0.6875q1.796875 0.64060974 2.46875 1.3749847q0.671875 0.734375 0.671875 1.90625zm9.578125 -5.0468597q0 1.734375 -1.1875 2.6718597q-1.171875 0.921875 -3.375 0.921875l-1.34375 0l0 4.5l-1.328125 0l0 -11.42186l2.953125 0q4.28125 0 4.28125 3.328125zm-5.90625 2.4531097l1.1875 0q1.765625 0 2.546875 -0.5625q0.796875 -0.57810974 0.796875 -1.8281097q0 -1.140625 -0.75 -1.6875q-0.734375 -0.5625 -2.296875 -0.5625l-1.484375 0l0 4.6406097z" fill-rule="nonzero"></path><path fill="#ffffff" d="m168.45654 281.318l-1.3125 0l-2.3125 -7.65625q-0.15625 -0.5 -0.359375 -1.265625q-0.203125 -0.78125 -0.21875 -0.9375q-0.171875 1.03125 -0.546875 2.25l-2.234375 7.609375l-1.3125 0l-3.03125 -11.421875l1.40625 0l1.796875 7.046875q0.375 1.484375 0.546875 2.6875q0.21875 -1.421875 0.625 -2.796875l2.046875 -6.9375l1.40625 0l2.15625 7.0q0.375 1.21875 0.625 2.734375q0.15625 -1.109375 0.5625 -2.703125l1.796875 -7.03125l1.40625 0l-3.046875 11.421875zm5.9375 0l-1.296875 0l0 -8.5625l1.296875 0l0 8.5625zm-1.40625 -10.890625q0 -0.4375 0.21875 -0.640625q0.21875 -0.21875 0.546875 -0.21875q0.3125 0 0.53125 0.21875q0.234375 0.203125 0.234375 0.640625q0 0.4375 -0.234375 0.65625q-0.21875 0.21875 -0.53125 0.21875q-0.328125 0 -0.546875 -0.21875q-0.21875 -0.21875 -0.21875 -0.65625zm9.984375 9.734375l-0.0625 0q-0.90625 1.3125 -2.6875 1.3125q-1.6875 0 -2.625 -1.140625q-0.921875 -1.15625 -0.921875 -3.28125q0 -2.109375 0.9375 -3.28125q0.9375 -1.171875 2.609375 -1.171875q1.734375 0 2.671875 1.265625l0.09375 0l-0.046875 -0.625l-0.03125 -0.59375l0 -3.484375l1.296875 0l0 12.15625l-1.0625 0l-0.171875 -1.15625zm-2.59375 0.21875q1.328125 0 1.921875 -0.71875q0.609375 -0.71875 0.609375 -2.328125l0 -0.28125q0 -1.8125 -0.609375 -2.59375q-0.609375 -0.78125 -1.9375 -0.78125q-1.140625 0 -1.75 0.890625q-0.59375 0.890625 -0.59375 2.5q0 1.640625 0.59375 2.484375q0.609375 0.828125 1.765625 0.828125zm13.5859375 -7.625l0 0.8125l-1.59375 0.1875q0.21875 0.28125 0.390625 0.71875q0.171875 0.4375 0.171875 1.0q0 1.25 -0.859375 2.0q-0.859375 0.75 -2.359375 0.75q-0.375 0 -0.71875 -0.0625q-0.828125 0.4375 -0.828125 1.109375q0 0.34375 0.28125 0.515625q0.296875 0.171875 1.0 0.171875l1.515625 0q1.390625 0 2.140625 0.59375q0.75 0.578125 0.75 1.703125q0 1.421875 -1.140625 2.15625q-1.140625 0.75 -3.328125 0.75q-1.6875 0 -2.59375 -0.625q-0.90625 -0.625 -0.90625 -1.765625q0 -0.78125 0.5 -1.359375q0.5 -0.5625 1.40625 -0.765625q-0.328125 -0.15625 -0.5625 -0.46875q-0.21875 -0.3125 -0.21875 -0.71875q0 -0.46875 0.25 -0.8125q0.25 -0.359375 0.796875 -0.6875q-0.671875 -0.28125 -1.09375 -0.9375q-0.40625 -0.65625 -0.40625 -1.5q0 -1.40625 0.84375 -2.15625q0.84375 -0.765625 2.390625 -0.765625q0.671875 0 1.203125 0.15625l2.96875 0zm-6.828125 10.0q0 0.703125 0.578125 1.0625q0.59375 0.359375 1.6875 0.359375q1.625 0 2.40625 -0.5q0.796875 -0.484375 0.796875 -1.3125q0 -0.703125 -0.4375 -0.984375q-0.421875 -0.265625 -1.609375 -0.265625l-1.5625 0q-0.875 0 -1.375 0.421875q-0.484375 0.4375 -0.484375 1.21875zm0.703125 -7.265625q0 0.90625 0.5 1.375q0.515625 0.453125 1.421875 0.453125q1.890625 0 1.890625 -1.84375q0 -1.9375 -1.921875 -1.9375q-0.90625 0 -1.40625 0.5q-0.484375 0.484375 -0.484375 1.453125zm11.5 5.984375q-1.90625 0 -3.0 -1.15625q-1.09375 -1.15625 -1.09375 -3.21875q0 -2.0625 1.015625 -3.28125q1.015625 -1.21875 2.734375 -1.21875q1.609375 0 2.546875 1.0625q0.9375 1.046875 0.9375 2.78125l0 0.828125l-5.890625 0q0.03125 1.5 0.75 2.28125q0.734375 0.78125 2.046875 0.78125q1.375 0 2.734375 -0.578125l0 1.15625q-0.6875 0.296875 -1.3125 0.421875q-0.609375 0.140625 -1.46875 0.140625zm-0.359375 -7.796875q-1.03125 0 -1.640625 0.671875q-0.609375 0.671875 -0.71875 1.859375l4.46875 0q0 -1.21875 -0.546875 -1.875q-0.546875 -0.65625 -1.5625 -0.65625zm8.4765625 6.71875q0.34375 0 0.65625 -0.046875q0.328125 -0.046875 0.515625 -0.109375l0 1.0q-0.203125 0.109375 -0.625 0.171875q-0.40625 0.0625 -0.734375 0.0625q-2.484375 0 -2.484375 -2.625l0 -5.09375l-1.21875 0l0 -0.625l1.21875 -0.53125l0.546875 -1.828125l0.75 0l0 1.984375l2.484375 0l0 1.0l-2.484375 0l0 5.046875q0 0.765625 0.359375 1.1875q0.375 0.40625 1.015625 0.40625z" fill-rule="nonzero"></path><path fill="#ff8400" d="m19.036745 67.333435l0 0c0 -2.7513351 2.2303963 -4.9817276 4.9817276 -4.9817276l187.07591 0c1.321228 0 2.5883484 0.52485657 3.5226135 1.4591141c0.9342499 0.9342499 1.4591064 2.2013779 1.4591064 3.5226135l0 19.926308c0 2.7513351 -2.2303925 4.9817276 -4.98172 4.9817276l-187.07591 0c-2.7513313 0 -4.9817276 -2.2303925 -4.9817276 -4.9817276z" fill-rule="nonzero"></path><path stroke="#000000" stroke-width="2.0" stroke-linejoin="round" stroke-linecap="butt" d="m19.036745 67.333435l0 0c0 -2.7513351 2.2303963 -4.9817276 4.9817276 -4.9817276l187.07591 0c1.321228 0 2.5883484 0.52485657 3.5226135 1.4591141c0.9342499 0.9342499 1.4591064 2.2013779 1.4591064 3.5226135l0 19.926308c0 2.7513351 -2.2303925 4.9817276 -4.98172 4.9817276l-187.07591 0c-2.7513313 0 -4.9817276 -2.2303925 -4.9817276 -4.9817276z" fill-rule="nonzero"></path><path fill="#ffffff" d="m80.00174 72.750336q-1.890625 0 -2.984375 1.265625q-1.078125 1.25 -1.078125 3.421875q0 2.25 1.046875 3.46875q1.046875 1.21875 3.0 1.21875q1.1875 0 2.71875 -0.421875l0 1.15625q-1.1875 0.453125 -2.921875 0.453125q-2.53125 0 -3.90625 -1.53125q-1.359375 -1.53125 -1.359375 -4.359375q0 -1.765625 0.65625 -3.09375q0.65625 -1.328125 1.90625 -2.046875q1.25 -0.71875 2.9375 -0.71875q1.796875 0 3.140625 0.65625l-0.5625 1.140625q-1.296875 -0.609375 -2.59375 -0.609375zm12.390625 6.109375q0 2.09375 -1.0625 3.28125q-1.046875 1.171875 -2.90625 1.171875q-1.140625 0 -2.03125 -0.53125q-0.890625 -0.546875 -1.375 -1.546875q-0.484375 -1.015625 -0.484375 -2.375q0 -2.09375 1.046875 -3.25q1.046875 -1.171875 2.90625 -1.171875q1.796875 0 2.84375 1.203125q1.0625 1.1875 1.0625 3.21875zm-6.515625 0q0 1.640625 0.65625 2.5q0.65625 0.859375 1.921875 0.859375q1.28125 0 1.9375 -0.84375q0.65625 -0.859375 0.65625 -2.515625q0 -1.625 -0.65625 -2.46875q-0.65625 -0.859375 -1.953125 -0.859375q-1.265625 0 -1.921875 0.84375q-0.640625 0.828125 -0.640625 2.484375zm14.6484375 4.296875l0 -5.546875q0 -1.046875 -0.484375 -1.5625q-0.46875 -0.515625 -1.484375 -0.515625q-1.34375 0 -1.96875 0.734375q-0.625 0.71875 -0.625 2.390625l0 4.5l-1.296875 0l0 -8.5625l1.0625 0l0.203125 1.171875l0.0625 0q0.40625 -0.640625 1.125 -0.984375q0.71875 -0.34375 1.59375 -0.34375q1.546875 0 2.328125 0.75q0.78125 0.734375 0.78125 2.375l0 5.59375l-1.296875 0zm6.7265625 -0.921875q0.34375 0 0.65625 -0.046875q0.328125 -0.046875 0.515625 -0.109375l0 1.0q-0.203125 0.109375 -0.625 0.171875q-0.40625 0.0625 -0.734375 0.0625q-2.484375 0 -2.484375 -2.625l0 -5.09375l-1.21875 0l0 -0.625l1.21875 -0.53125l0.546875 -1.828125l0.75 0l0 1.984375l2.484375 0l0 1.0l-2.484375 0l0 5.046875q0 0.765625 0.359375 1.1875q0.375 0.40625 1.015625 0.40625zm6.5078125 1.078125q-1.90625 0 -3.0 -1.15625q-1.09375 -1.15625 -1.09375 -3.21875q0 -2.0625 1.015625 -3.28125q1.015625 -1.21875 2.734375 -1.21875q1.609375 0 2.546875 1.0625q0.9375 1.046875 0.9375 2.78125l0 0.828125l-5.890625 0q0.03125 1.5 0.75 2.28125q0.734375 0.78125 2.046875 0.78125q1.375 0 2.734375 -0.578125l0 1.15625q-0.6875 0.296875 -1.3125 0.421875q-0.609375 0.140625 -1.46875 0.140625zm-0.359375 -7.796875q-1.03125 0 -1.640625 0.671875q-0.609375 0.671875 -0.71875 1.859375l4.46875 0q0 -1.21875 -0.546875 -1.875q-0.546875 -0.65625 -1.5625 -0.65625zm11.5703125 7.640625l0 -5.546875q0 -1.046875 -0.484375 -1.5625q-0.46875 -0.515625 -1.484375 -0.515625q-1.34375 0 -1.96875 0.734375q-0.625 0.71875 -0.625 2.390625l0 4.5l-1.296875 0l0 -8.5625l1.0625 0l0.203125 1.171875l0.0625 0q0.40625 -0.640625 1.125 -0.984375q0.71875 -0.34375 1.59375 -0.34375q1.546875 0 2.328125 0.75q0.78125 0.734375 0.78125 2.375l0 5.59375l-1.296875 0zm6.7265625 -0.921875q0.34375 0 0.65625 -0.046875q0.328125 -0.046875 0.515625 -0.109375l0 1.0q-0.203125 0.109375 -0.625 0.171875q-0.40625 0.0625 -0.734375 0.0625q-2.484375 0 -2.484375 -2.625l0 -5.09375l-1.21875 0l0 -0.625l1.21875 -0.53125l0.546875 -1.828125l0.75 0l0 1.984375l2.484375 0l0 1.0l-2.484375 0l0 5.046875q0 0.765625 0.359375 1.1875q0.375 0.40625 1.015625 0.40625zm14.4140625 0.921875l-1.421875 -3.640625l-4.578125 0l-1.40625 3.640625l-1.34375 0l4.515625 -11.46875l1.125 0l4.484375 11.46875l-1.375 0zm-1.828125 -4.828125l-1.328125 -3.546875q-0.265625 -0.671875 -0.53125 -1.640625q-0.171875 0.75 -0.5 1.640625l-1.34375 3.546875l3.703125 0zm12.015625 -3.265625q0 1.734375 -1.1875 2.671875q-1.171875 0.921875 -3.375 0.921875l-1.34375 0l0 4.5l-1.328125 0l0 -11.421875l2.953125 0q4.28125 0 4.28125 3.328125zm-5.90625 2.453125l1.1875 0q1.765625 0 2.546875 -0.5625q0.796875 -0.578125 0.796875 -1.828125q0 -1.140625 -0.75 -1.6875q-0.734375 -0.5625 -2.296875 -0.5625l-1.484375 0l0 4.640625zm8.3046875 5.640625l0 -11.421875l1.328125 0l0 11.421875l-1.328125 0z" fill-rule="nonzero"></path></g></svg>

