<?xml version="1.0" encoding="UTF-8"?>
<svg width="447px" height="73px" viewBox="0 0 447 73" version="1.1" xmlns="http://www.w3.org/2000/svg" xmlns:xlink="http://www.w3.org/1999/xlink">
    <!-- Generator: Sketch 52.6 (67491) - http://www.bohemiancoding.com/sketch -->
    <title>SP API logo</title>
    <desc>Created with Sketch.</desc>
    <g id="SP-API-logo" stroke="none" stroke-width="1" fill="none" fill-rule="evenodd">
        <g id="satoshipay-logo" fill="#326CAC">
            <path d="M36.2116622,0 C16.8022113,0 0.94150322,15.2505934 0,34.413453 L16.3495655,34.413453 C17.2729629,24.2795967 25.8370211,16.3011093 36.2116622,16.3011093 C46.5863036,16.3011093 55.1503616,24.2795967 56.0737589,34.413453 L72.4233244,34.413453 C71.4818214,15.2505934 55.6211132,0 36.2116622,0 L36.2116622,0 L36.2116622,0 Z M72.4233244,38.0359218 L56.0737589,38.0359218 C55.1503616,48.169778 46.5863036,56.1482653 36.2116622,56.1482653 C25.8370211,56.1482653 17.2729629,48.169778 16.3495655,38.0359218 L0,38.0359218 C0.94150322,57.1987812 16.8022113,72.4493746 36.2116622,72.4493746 C55.6211132,72.4493746 71.4818214,57.1987812 72.4233244,38.0359218 L72.4233244,38.0359218 L72.4233244,38.0359218 Z M36.2116622,19.923578 C27.1768526,19.923578 19.8983084,27.2047402 19.8983084,36.2246873 C19.8983084,45.2446346 27.1859055,52.5257965 36.2116622,52.5257965 C45.2374192,52.5257965 52.5250162,45.2446346 52.5250162,36.2246873 C52.5250162,27.2047402 45.2464721,19.923578 36.2116622,19.923578 L36.2116622,19.923578 L36.2116622,19.923578 Z" id="Shape"></path>
            <path d="M82.3996376,52.1907183 C87.0437831,56.2750518 92.7380671,58.2583535 99.2290075,58.2583535 C108.698357,58.2583535 114.70044,53.549144 114.70044,45.4348141 C114.70044,39.4305721 110.862004,33.7342401 102.632904,32.7380611 C100.532627,32.4935445 98.857838,32.2399718 97.6809589,32.0588482 C93.2269244,31.3796354 91.4253943,28.8982444 91.4253943,26.4259093 C91.4253943,22.2147895 94.7116026,20.1137576 98.7944675,20.1137576 C102.696274,20.1137576 106.47134,21.4721834 109.685125,23.5188782 L113.405873,18.0127258 C109.377326,15.3502113 104.552122,13.4303028 99.1022666,13.4303028 C90.0040866,13.4303028 84.7443426,18.7553319 84.7443426,26.3081792 C84.7443426,32.6837242 88.8272075,37.6374501 96.4407096,38.6970221 C98.7310971,39.0049322 100.279146,39.2494487 102.261734,39.5030215 C106.226911,40.001111 108.019388,42.3466596 108.019388,45.4438702 C108.019388,49.1025636 104.73318,51.5748987 99.292378,51.5748987 C94.584862,51.5748987 90.1308275,49.8451697 86.7903016,47.1826553 L82.3996376,52.1907183 L82.3996376,52.1907183 L82.3996376,52.1907183 Z M137.685793,57.8961066 L143.995675,57.8961066 L143.995675,36.4692038 C143.995675,28.726177 138.672561,26.1270556 130.932318,26.1270556 C126.224802,26.1270556 122.757535,27.3677513 120.349459,30.7094787 L125.301404,34.4859024 C126.414913,32.6927804 127.962962,32.0769605 131.240117,32.0769605 C135.757522,32.0769605 137.67674,33.1274767 137.67674,36.0979008 L137.67674,39.3852914 L128.949729,39.3852914 C122.205307,39.3852914 118.738041,43.6598043 118.738041,48.6769237 C118.738041,54.128739 122.820905,58.2764658 129.818809,58.2764658 C134.091785,58.2764658 136.255432,57.2893431 137.559052,55.1158617 L137.685793,55.1158617 L137.685793,57.8961066 L137.685793,57.8961066 L137.685793,57.8961066 Z M137.685793,46.8656891 C137.685793,51.756022 135.893315,52.3175048 130.624519,52.3175048 C126.351543,52.3175048 124.685806,50.4609895 124.685806,48.3509013 C124.685806,46.0596898 126.414913,44.5744779 130.135661,44.5744779 L137.685793,44.5744779 L137.685793,46.8656891 L137.685793,46.8656891 L137.685793,46.8656891 Z M152.532574,26.4983587 L149.38216,26.4983587 L149.38216,31.3252983 L152.532574,31.3252983 L152.532574,50.1530797 C152.532574,55.1068056 155.746359,57.8961066 160.146076,57.8961066 L163.432285,57.8961066 L163.432285,51.9462017 L161.078527,51.9462017 C159.530478,51.9462017 158.851509,51.3303819 158.851509,49.591597 L158.851509,31.3252983 L163.432285,31.3252983 L163.432285,26.4983587 L158.851509,26.4983587 L158.851509,16.9622098 L152.532574,16.9622098 L152.532574,26.4983587 L152.532574,26.4983587 L152.532574,26.4983587 Z M167.786737,42.165536 C167.786737,48.9757773 168.773505,51.5748987 171.190633,54.237413 C172.91974,56.1573215 175.834779,58.2674096 180.723354,58.2674096 C185.611928,58.2674096 188.517914,56.1573215 190.256074,54.237413 C192.664149,51.5748987 193.65997,48.9757773 193.65997,42.165536 C193.65997,35.4186879 192.673202,32.8195666 190.256074,30.1479959 C188.517914,28.2280877 185.611928,26.1270556 180.723354,26.1270556 C175.834779,26.1270556 172.928793,28.2280877 171.190633,30.1479959 C168.773505,32.8105105 167.786737,35.4096318 167.786737,42.165536 L167.786737,42.165536 L167.786737,42.165536 Z M187.341035,42.2289293 C187.341035,46.7479591 186.969865,47.9886544 185.792986,49.6640463 C184.869589,50.9590788 182.887,51.9552579 180.7143,51.9552579 C178.550654,51.9552579 176.568065,50.9681349 175.644668,49.6640463 C174.467789,47.9886544 174.096619,46.7570152 174.096619,42.1745922 C174.096619,37.6555624 174.467789,36.414867 175.644668,34.7394751 C176.568065,33.4444426 178.550654,32.4482636 180.7143,32.4482636 C182.887,32.4482636 184.860536,33.4353865 185.792986,34.7394751 C186.969865,36.4058109 187.341035,37.6465062 187.341035,42.2289293 L187.341035,42.2289293 L187.341035,42.2289293 Z M196.810384,52.6254146 C200.838932,56.4018383 205.537395,58.2583535 210.616081,58.2583535 C217.921784,58.2583535 223.616068,54.7264464 223.616068,48.5954181 C223.616068,43.5782988 221.017881,39.6207518 214.517887,39.1860555 L209.312461,38.8147525 C206.162046,38.5702359 205.166225,37.2027538 205.166225,35.8352719 C205.166225,33.6708469 206.524163,32.0588482 210.55271,32.0588482 C213.956607,32.0588482 216.491423,33.2361506 218.971922,34.9658794 L222.873728,30.3834566 C219.777631,27.7843353 216.065936,26.1179995 210.55271,26.1179995 C203.925976,26.1179995 198.84729,29.3963337 198.84729,35.7718787 C198.84729,41.1603011 202.685727,44.2575117 207.8821,44.6831518 L213.449643,45.1812413 C215.61329,45.3714208 217.288079,46.0506337 217.288079,48.278452 C217.288079,50.9409665 214.689893,52.2993922 211.095885,52.2993922 C206.88628,52.2993922 203.916923,50.9409665 201.191996,48.278452 L196.810384,52.6254146 L196.810384,52.6254146 L196.810384,52.6254146 Z M230.016479,57.8961066 L236.326361,57.8961066 L236.326361,39.1951116 C236.326361,34.9205987 238.987918,32.4482636 242.581926,32.4482636 C246.103509,32.4482636 248.774121,34.9205987 248.774121,39.1951116 L248.774121,57.8961066 L255.084001,57.8961066 L255.084001,37.0306866 C255.084001,29.9125355 249.51646,26.136112 244.627884,26.136112 C241.287359,26.136112 238.43569,27.3768074 236.462155,29.8491422 L236.335414,29.8491422 L236.335414,13.810662 L230.025532,13.810662 L230.025532,57.8961066 L230.016479,57.8961066 L230.016479,57.8961066 Z M263.448895,57.8961066 L269.767831,57.8961066 L269.767831,26.5074151 L263.448895,26.5074151 L263.448895,57.8961066 L263.448895,57.8961066 L263.448895,57.8961066 Z M263.448895,20.1228138 L269.767831,20.1228138 L269.767831,13.8016059 L263.448895,13.8016059 L263.448895,20.1228138 L263.448895,20.1228138 L263.448895,20.1228138 Z M285.375058,20.1228138 L295.034518,20.1228138 C296.953738,20.1228138 298.320726,20.3673304 299.805404,21.3635093 C301.471142,22.4774185 302.64802,24.2705405 302.64802,27.2500209 C302.64802,30.7185348 300.230892,34.368172 295.278946,34.368172 L285.375058,34.368172 L285.375058,20.1228138 L285.375058,20.1228138 L285.375058,20.1228138 Z M278.684953,57.8961066 L285.366005,57.8961066 L285.366005,40.6803238 L295.514324,40.6803238 C304.549133,40.6803238 309.320019,33.679903 309.320019,27.4311445 C309.320019,22.6585419 307.219742,18.9455115 304.549133,16.9078728 C301.145236,14.2453583 298.112509,13.810662 294.645242,13.810662 L278.6759,13.810662 L278.6759,57.8961066 L278.684953,57.8961066 L278.684953,57.8961066 Z M329.770556,57.8961066 L336.08949,57.8961066 L336.08949,36.4692038 C336.08949,28.726177 330.766376,26.1270556 323.026134,26.1270556 C318.318616,26.1270556 314.860404,27.3677513 312.443274,30.7094787 L317.39522,34.4859024 C318.50873,32.6927804 320.056778,32.0769605 323.333932,32.0769605 C327.851337,32.0769605 329.770556,33.1274767 329.770556,36.0979008 L329.770556,39.3852914 L321.043545,39.3852914 C314.299123,39.3852914 310.831855,43.6598043 310.831855,48.6769237 C310.831855,54.128739 314.923775,58.2764658 321.912624,58.2764658 C326.185601,58.2764658 328.349248,57.2893431 329.652869,55.1158617 L329.779609,55.1158617 L329.779609,57.8961066 L329.770556,57.8961066 L329.770556,57.8961066 Z M329.770556,46.8656891 C329.770556,51.756022 327.978077,52.3175048 322.718334,52.3175048 C318.445357,52.3175048 316.779621,50.4609895 316.779621,48.3509013 C316.779621,46.0596898 318.50873,44.5744779 322.229478,44.5744779 L329.779609,44.5744779 L329.779609,46.8656891 L329.770556,46.8656891 L329.770556,46.8656891 Z M350.637526,57.551972 L348.908418,62.8136079 C348.292822,64.6701231 346.744773,65.5395154 345.133352,65.5395154 L343.277506,65.5395154 L343.277506,71.4894203 L345.386835,71.4894203 C349.225271,71.4894203 352.502426,70.1309946 354.231534,65.2949989 L367.729431,27.4039761 L361.048379,27.4039761 L353.615936,49.383305 L353.489195,49.383305 L346.065804,27.4039761 L339.384753,27.4039761 L350.637526,57.551972 L350.637526,57.551972 L350.637526,57.551972 Z" id="Shape"></path>
        </g>
        <path d="M377.2,57 C376.933332,57 376.700001,56.900001 376.5,56.7 C376.299999,56.499999 376.2,56.266668 376.2,56 L376.3,55.45 L388.95,23 C389.216668,22.33333 389.699996,22 390.4,22 L392.1,22 C392.800004,22 393.283332,22.33333 393.55,23 L406.2,55.45 L406.3,56 C406.3,56.266668 406.200001,56.499999 406,56.7 C405.799999,56.900001 405.566668,57 405.3,57 L404.3,57 C403.999999,57 403.758334,56.9166675 403.575,56.75 C403.391666,56.5833325 403.266667,56.4166675 403.2,56.25 L400.1,48.25 L382.4,48.25 L379.3,56.25 C379.233333,56.4166675 379.108334,56.5833325 378.925,56.75 C378.741666,56.9166675 378.500001,57 378.2,57 L377.2,57 Z M383.6,45.25 L398.9,45.25 L391.25,25.55 L383.6,45.25 Z M413.361323,57 C413.027988,57 412.761324,56.900001 412.561323,56.7 C412.361322,56.499999 412.261323,56.233335 412.261323,55.9 L412.261323,23.15 C412.261323,22.816665 412.361322,22.5416678 412.561323,22.325 C412.761324,22.1083322 413.027988,22 413.361323,22 L425.511323,22 C429.078007,22 431.886312,22.8916578 433.936323,24.675 C435.986333,26.4583422 437.011323,29.01665 437.011323,32.35 C437.011323,35.68335 435.986333,38.2416577 433.936323,40.025 C431.886312,41.8083423 429.078007,42.7 425.511323,42.7 L415.411323,42.7 L415.411323,55.9 C415.411323,56.233335 415.30299,56.499999 415.086323,56.7 C414.869655,56.900001 414.594658,57 414.261323,57 L413.361323,57 Z M425.261323,39.7 C428.128004,39.7 430.277982,39.0750063 431.711323,37.825 C433.144663,36.5749938 433.861323,34.750012 433.861323,32.35 C433.861323,29.949988 433.144663,28.1250062 431.711323,26.875 C430.277982,25.6249938 428.128004,25 425.261323,25 L415.411323,25 L415.411323,39.7 L425.261323,39.7 Z M444.822645,57 C444.48931,57 444.222646,56.900001 444.022645,56.7 C443.822644,56.499999 443.722645,56.233335 443.722645,55.9 L443.722645,23.1 C443.722645,22.766665 443.822644,22.500001 444.022645,22.3 C444.222646,22.099999 444.48931,22 444.822645,22 L445.772645,22 C446.10598,22 446.372644,22.099999 446.572645,22.3 C446.772646,22.500001 446.872645,22.766665 446.872645,23.1 L446.872645,55.9 C446.872645,56.233335 446.772646,56.499999 446.572645,56.7 C446.372644,56.900001 446.10598,57 445.772645,57 L444.822645,57 Z" id="API" fill="#5BC0DE"></path>
    </g>
</svg>