<?xml version="1.0" standalone="no"?>
<!DOCTYPE svg PUBLIC "-//W3C//DTD SVG 20010904//EN"
 "http://www.w3.org/TR/2001/REC-SVG-20010904/DTD/svg10.dtd">
<svg version="1.0" xmlns="http://www.w3.org/2000/svg"
 width="1000.000000pt" height="1000.000000pt" viewBox="0 0 1000.000000 1000.000000"
 preserveAspectRatio="xMidYMid meet">
<metadata>
Created by potrace 1.11, written by Peter Selinger 2001-2013
</metadata>
<g transform="translate(0.000000,1000.000000) scale(0.100000,-0.100000)"
fill="#000000" stroke="none">
<path d="M4738 9995 c-2 -1 -52 -6 -113 -9 -60 -4 -119 -9 -130 -11 -11 -2
-47 -7 -80 -10 -33 -3 -71 -7 -84 -10 -14 -2 -45 -7 -70 -10 -25 -3 -57 -7
-71 -10 -14 -3 -50 -9 -80 -15 -30 -5 -66 -11 -80 -14 -378 -68 -853 -229
-1240 -420 -203 -101 -487 -264 -536 -307 -11 -11 -23 -19 -27 -19 -16 0 -242
-165 -387 -283 -290 -236 -589 -544 -822 -847 -185 -242 -416 -615 -528 -855
-76 -163 -98 -215 -155 -360 -77 -198 -184 -533 -201 -632 -3 -15 -7 -36 -10
-45 -3 -9 -7 -25 -9 -35 -2 -10 -10 -49 -19 -88 -17 -80 -42 -226 -51 -300 -3
-27 -8 -65 -11 -82 -2 -18 -6 -48 -8 -65 -8 -59 -19 -202 -20 -258 l-1 -55
1123 -1 c617 -1 1124 1 1126 5 3 4 7 29 10 57 4 27 8 60 11 74 3 14 7 41 9 60
7 52 34 189 40 199 3 4 7 21 10 37 3 16 16 65 30 109 194 644 632 1206 1213
1558 232 140 437 227 735 311 83 24 205 47 318 62 25 3 56 8 70 11 14 3 133 6
265 8 239 3 370 -8 565 -45 262 -50 582 -167 800 -293 47 -27 100 -58 119 -69
59 -34 145 -94 246 -173 472 -369 808 -875 965 -1455 31 -115 57 -245 67 -330
3 -30 7 -62 9 -70 1 -8 3 -25 3 -36 l1 -22 1130 0 1131 0 -6 77 c-11 154 -27
303 -40 382 -2 13 -6 47 -10 74 -3 28 -10 68 -15 90 -5 22 -11 56 -15 75 -11
74 -52 247 -95 404 -85 317 -253 731 -411 1016 -5 8 -18 33 -30 55 -86 160
-252 414 -393 600 -194 257 -515 595 -747 786 -35 29 -66 56 -69 59 -3 3 -39
32 -80 63 -41 31 -86 66 -100 77 -83 67 -388 265 -545 353 -119 67 -422 217
-438 217 -7 0 -17 4 -23 9 -12 12 -268 112 -359 140 -38 13 -79 26 -90 31 -43
18 -326 96 -384 106 -14 3 -34 7 -43 10 -10 3 -30 7 -44 10 -14 3 -54 11 -88
19 -92 21 -341 57 -486 71 -41 4 -91 9 -110 11 -42 5 -637 12 -642 8z"/>
<path d="M4695 7230 c-193 -31 -228 -38 -370 -82 -482 -147 -916 -472 -1200
-899 -179 -269 -306 -595 -350 -899 -4 -25 -9 -57 -11 -73 -15 -95 -20 -369
-9 -462 21 -173 29 -221 50 -318 51 -224 138 -441 263 -652 36 -61 146 -220
166 -241 6 -6 27 -30 46 -55 53 -66 206 -217 290 -285 319 -258 687 -421 1092
-484 119 -18 199 -24 353 -23 781 2 1493 404 1906 1073 170 275 285 608 315
905 4 39 8 84 10 100 4 43 4 302 0 350 -5 47 -16 141 -21 164 -1 9 -6 36 -10
61 -16 107 -96 382 -116 405 -5 5 -9 15 -9 23 0 23 -112 250 -169 341 -157
253 -318 426 -617 660 -6 5 -30 21 -55 37 -312 201 -579 299 -994 362 -103 16
-437 11 -560 -8z"/>
<path d="M10 4750 c-11 -7 -3 -167 15 -305 3 -22 7 -56 9 -75 21 -178 65 -404
116 -605 298 -1172 1033 -2215 2040 -2896 124 -84 196 -130 215 -138 6 -2 22
-12 36 -22 99 -69 474 -255 686 -340 240 -96 600 -209 775 -243 13 -2 57 -11
98 -20 97 -20 171 -33 290 -51 78 -11 267 -31 400 -41 87 -6 544 -6 610 0 25
3 81 8 125 11 44 3 92 7 108 9 15 2 55 7 90 11 73 8 82 9 207 30 128 22 119
20 255 49 728 159 1423 490 2025 965 110 87 120 96 254 216 377 339 744 794
974 1205 13 25 42 75 63 112 193 333 419 944 498 1348 6 30 14 66 16 80 7 32
52 321 59 380 8 60 19 213 20 274 l1 49 -1105 -1 c-608 0 -1114 -1 -1126 -1
-19 -1 -22 -12 -38 -123 -66 -479 -251 -918 -545 -1298 -97 -126 -96 -124
-231 -260 -331 -335 -725 -570 -1168 -700 -325 -96 -650 -131 -986 -107 -96 7
-294 33 -328 43 -10 3 -28 7 -40 10 -73 13 -122 26 -238 61 -336 101 -722 314
-980 540 -348 304 -586 639 -775 1088 -48 114 -109 324 -139 480 -16 82 -19
108 -31 208 -4 31 -12 57 -19 58 -55 4 -2230 3 -2236 -1z"/>
</g>
</svg>
